<?xml version="1.0" encoding="utf-8" standalone="no"?>
<!DOCTYPE svg PUBLIC "-//W3C//DTD SVG 1.1//EN"
  "http://www.w3.org/Graphics/SVG/1.1/DTD/svg11.dtd">
<!-- Created with matplotlib (https://matplotlib.org/) -->
<svg height="345.6pt" version="1.1" viewBox="0 0 460.8 345.6" width="460.8pt" xmlns="http://www.w3.org/2000/svg" xmlns:xlink="http://www.w3.org/1999/xlink">
 <defs>
  <style type="text/css">
*{stroke-linecap:butt;stroke-linejoin:round;}
  </style>
 </defs>
 <g id="figure_1">
  <g id="patch_1">
   <path d="M 0 345.6 
L 460.8 345.6 
L 460.8 0 
L 0 0 
z
" style="fill:#ffffff;"/>
  </g>
  <g id="axes_1">
   <g id="patch_2">
    <path d="M 57.6 307.584 
L 414.72 307.584 
L 414.72 41.472 
L 57.6 41.472 
z
" style="fill:#ffffff;"/>
   </g>
   <g id="matplotlib.axis_1">
    <g id="xtick_1">
     <g id="line2d_1">
      <defs>
       <path d="M 0 0 
L 0 3.5 
" id="mad5d3d659d" style="stroke:#000000;stroke-width:0.8;"/>
      </defs>
      <g>
       <use style="stroke:#000000;stroke-width:0.8;" x="73.832727" xlink:href="#mad5d3d659d" y="307.584"/>
      </g>
     </g>
     <g id="text_1">
      <!-- 0 -->
      <defs>
       <path d="M 31.78125 66.40625 
Q 24.171875 66.40625 20.328125 58.90625 
Q 16.5 51.421875 16.5 36.375 
Q 16.5 21.390625 20.328125 13.890625 
Q 24.171875 6.390625 31.78125 6.390625 
Q 39.453125 6.390625 43.28125 13.890625 
Q 47.125 21.390625 47.125 36.375 
Q 47.125 51.421875 43.28125 58.90625 
Q 39.453125 66.40625 31.78125 66.40625 
z
M 31.78125 74.21875 
Q 44.046875 74.21875 50.515625 64.515625 
Q 56.984375 54.828125 56.984375 36.375 
Q 56.984375 17.96875 50.515625 8.265625 
Q 44.046875 -1.421875 31.78125 -1.421875 
Q 19.53125 -1.421875 13.0625 8.265625 
Q 6.59375 17.96875 6.59375 36.375 
Q 6.59375 54.828125 13.0625 64.515625 
Q 19.53125 74.21875 31.78125 74.21875 
z
" id="DejaVuSans-48"/>
      </defs>
      <g transform="translate(70.651477 322.182437)scale(0.1 -0.1)">
       <use xlink:href="#DejaVuSans-48"/>
      </g>
     </g>
    </g>
    <g id="xtick_2">
     <g id="line2d_2">
      <g>
       <use style="stroke:#000000;stroke-width:0.8;" x="125.529311" xlink:href="#mad5d3d659d" y="307.584"/>
      </g>
     </g>
     <g id="text_2">
      <!-- 1 -->
      <defs>
       <path d="M 12.40625 8.296875 
L 28.515625 8.296875 
L 28.515625 63.921875 
L 10.984375 60.40625 
L 10.984375 69.390625 
L 28.421875 72.90625 
L 38.28125 72.90625 
L 38.28125 8.296875 
L 54.390625 8.296875 
L 54.390625 0 
L 12.40625 0 
z
" id="DejaVuSans-49"/>
      </defs>
      <g transform="translate(122.348061 322.182437)scale(0.1 -0.1)">
       <use xlink:href="#DejaVuSans-49"/>
      </g>
     </g>
    </g>
    <g id="xtick_3">
     <g id="line2d_3">
      <g>
       <use style="stroke:#000000;stroke-width:0.8;" x="177.225895" xlink:href="#mad5d3d659d" y="307.584"/>
      </g>
     </g>
     <g id="text_3">
      <!-- 2 -->
      <defs>
       <path d="M 19.1875 8.296875 
L 53.609375 8.296875 
L 53.609375 0 
L 7.328125 0 
L 7.328125 8.296875 
Q 12.9375 14.109375 22.625 23.890625 
Q 32.328125 33.6875 34.8125 36.53125 
Q 39.546875 41.84375 41.421875 45.53125 
Q 43.3125 49.21875 43.3125 52.78125 
Q 43.3125 58.59375 39.234375 62.25 
Q 35.15625 65.921875 28.609375 65.921875 
Q 23.96875 65.921875 18.8125 64.3125 
Q 13.671875 62.703125 7.8125 59.421875 
L 7.8125 69.390625 
Q 13.765625 71.78125 18.9375 73 
Q 24.125 74.21875 28.421875 74.21875 
Q 39.75 74.21875 46.484375 68.546875 
Q 53.21875 62.890625 53.21875 53.421875 
Q 53.21875 48.921875 51.53125 44.890625 
Q 49.859375 40.875 45.40625 35.40625 
Q 44.1875 33.984375 37.640625 27.21875 
Q 31.109375 20.453125 19.1875 8.296875 
z
" id="DejaVuSans-50"/>
      </defs>
      <g transform="translate(174.044645 322.182437)scale(0.1 -0.1)">
       <use xlink:href="#DejaVuSans-50"/>
      </g>
     </g>
    </g>
    <g id="xtick_4">
     <g id="line2d_4">
      <g>
       <use style="stroke:#000000;stroke-width:0.8;" x="228.922478" xlink:href="#mad5d3d659d" y="307.584"/>
      </g>
     </g>
     <g id="text_4">
      <!-- 3 -->
      <defs>
       <path d="M 40.578125 39.3125 
Q 47.65625 37.796875 51.625 33 
Q 55.609375 28.21875 55.609375 21.1875 
Q 55.609375 10.40625 48.1875 4.484375 
Q 40.765625 -1.421875 27.09375 -1.421875 
Q 22.515625 -1.421875 17.65625 -0.515625 
Q 12.796875 0.390625 7.625 2.203125 
L 7.625 11.71875 
Q 11.71875 9.328125 16.59375 8.109375 
Q 21.484375 6.890625 26.8125 6.890625 
Q 36.078125 6.890625 40.9375 10.546875 
Q 45.796875 14.203125 45.796875 21.1875 
Q 45.796875 27.640625 41.28125 31.265625 
Q 36.765625 34.90625 28.71875 34.90625 
L 20.21875 34.90625 
L 20.21875 43.015625 
L 29.109375 43.015625 
Q 36.375 43.015625 40.234375 45.921875 
Q 44.09375 48.828125 44.09375 54.296875 
Q 44.09375 59.90625 40.109375 62.90625 
Q 36.140625 65.921875 28.71875 65.921875 
Q 24.65625 65.921875 20.015625 65.03125 
Q 15.375 64.15625 9.8125 62.3125 
L 9.8125 71.09375 
Q 15.4375 72.65625 20.34375 73.4375 
Q 25.25 74.21875 29.59375 74.21875 
Q 40.828125 74.21875 47.359375 69.109375 
Q 53.90625 64.015625 53.90625 55.328125 
Q 53.90625 49.265625 50.4375 45.09375 
Q 46.96875 40.921875 40.578125 39.3125 
z
" id="DejaVuSans-51"/>
      </defs>
      <g transform="translate(225.741228 322.182437)scale(0.1 -0.1)">
       <use xlink:href="#DejaVuSans-51"/>
      </g>
     </g>
    </g>
    <g id="xtick_5">
     <g id="line2d_5">
      <g>
       <use style="stroke:#000000;stroke-width:0.8;" x="280.619062" xlink:href="#mad5d3d659d" y="307.584"/>
      </g>
     </g>
     <g id="text_5">
      <!-- 4 -->
      <defs>
       <path d="M 37.796875 64.3125 
L 12.890625 25.390625 
L 37.796875 25.390625 
z
M 35.203125 72.90625 
L 47.609375 72.90625 
L 47.609375 25.390625 
L 58.015625 25.390625 
L 58.015625 17.1875 
L 47.609375 17.1875 
L 47.609375 0 
L 37.796875 0 
L 37.796875 17.1875 
L 4.890625 17.1875 
L 4.890625 26.703125 
z
" id="DejaVuSans-52"/>
      </defs>
      <g transform="translate(277.437812 322.182437)scale(0.1 -0.1)">
       <use xlink:href="#DejaVuSans-52"/>
      </g>
     </g>
    </g>
    <g id="xtick_6">
     <g id="line2d_6">
      <g>
       <use style="stroke:#000000;stroke-width:0.8;" x="332.315646" xlink:href="#mad5d3d659d" y="307.584"/>
      </g>
     </g>
     <g id="text_6">
      <!-- 5 -->
      <defs>
       <path d="M 10.796875 72.90625 
L 49.515625 72.90625 
L 49.515625 64.59375 
L 19.828125 64.59375 
L 19.828125 46.734375 
Q 21.96875 47.46875 24.109375 47.828125 
Q 26.265625 48.1875 28.421875 48.1875 
Q 40.625 48.1875 47.75 41.5 
Q 54.890625 34.8125 54.890625 23.390625 
Q 54.890625 11.625 47.5625 5.09375 
Q 40.234375 -1.421875 26.90625 -1.421875 
Q 22.3125 -1.421875 17.546875 -0.640625 
Q 12.796875 0.140625 7.71875 1.703125 
L 7.71875 11.625 
Q 12.109375 9.234375 16.796875 8.0625 
Q 21.484375 6.890625 26.703125 6.890625 
Q 35.15625 6.890625 40.078125 11.328125 
Q 45.015625 15.765625 45.015625 23.390625 
Q 45.015625 31 40.078125 35.4375 
Q 35.15625 39.890625 26.703125 39.890625 
Q 22.75 39.890625 18.8125 39.015625 
Q 14.890625 38.140625 10.796875 36.28125 
z
" id="DejaVuSans-53"/>
      </defs>
      <g transform="translate(329.134396 322.182437)scale(0.1 -0.1)">
       <use xlink:href="#DejaVuSans-53"/>
      </g>
     </g>
    </g>
    <g id="xtick_7">
     <g id="line2d_7">
      <g>
       <use style="stroke:#000000;stroke-width:0.8;" x="384.012229" xlink:href="#mad5d3d659d" y="307.584"/>
      </g>
     </g>
     <g id="text_7">
      <!-- 6 -->
      <defs>
       <path d="M 33.015625 40.375 
Q 26.375 40.375 22.484375 35.828125 
Q 18.609375 31.296875 18.609375 23.390625 
Q 18.609375 15.53125 22.484375 10.953125 
Q 26.375 6.390625 33.015625 6.390625 
Q 39.65625 6.390625 43.53125 10.953125 
Q 47.40625 15.53125 47.40625 23.390625 
Q 47.40625 31.296875 43.53125 35.828125 
Q 39.65625 40.375 33.015625 40.375 
z
M 52.59375 71.296875 
L 52.59375 62.3125 
Q 48.875 64.0625 45.09375 64.984375 
Q 41.3125 65.921875 37.59375 65.921875 
Q 27.828125 65.921875 22.671875 59.328125 
Q 17.53125 52.734375 16.796875 39.40625 
Q 19.671875 43.65625 24.015625 45.921875 
Q 28.375 48.1875 33.59375 48.1875 
Q 44.578125 48.1875 50.953125 41.515625 
Q 57.328125 34.859375 57.328125 23.390625 
Q 57.328125 12.15625 50.6875 5.359375 
Q 44.046875 -1.421875 33.015625 -1.421875 
Q 20.359375 -1.421875 13.671875 8.265625 
Q 6.984375 17.96875 6.984375 36.375 
Q 6.984375 53.65625 15.1875 63.9375 
Q 23.390625 74.21875 37.203125 74.21875 
Q 40.921875 74.21875 44.703125 73.484375 
Q 48.484375 72.75 52.59375 71.296875 
z
" id="DejaVuSans-54"/>
      </defs>
      <g transform="translate(380.830979 322.182437)scale(0.1 -0.1)">
       <use xlink:href="#DejaVuSans-54"/>
      </g>
     </g>
    </g>
   </g>
   <g id="matplotlib.axis_2">
    <g id="ytick_1">
     <g id="line2d_8">
      <defs>
       <path d="M 0 0 
L -3.5 0 
" id="m6aa96a25b2" style="stroke:#000000;stroke-width:0.8;"/>
      </defs>
      <g>
       <use style="stroke:#000000;stroke-width:0.8;" x="57.6" xlink:href="#m6aa96a25b2" y="295.489185"/>
      </g>
     </g>
     <g id="text_8">
      <!-- −1.00 -->
      <defs>
       <path d="M 10.59375 35.5 
L 73.1875 35.5 
L 73.1875 27.203125 
L 10.59375 27.203125 
z
" id="DejaVuSans-8722"/>
       <path d="M 10.6875 12.40625 
L 21 12.40625 
L 21 0 
L 10.6875 0 
z
" id="DejaVuSans-46"/>
      </defs>
      <g transform="translate(19.954687 299.288403)scale(0.1 -0.1)">
       <use xlink:href="#DejaVuSans-8722"/>
       <use x="83.789062" xlink:href="#DejaVuSans-49"/>
       <use x="147.412109" xlink:href="#DejaVuSans-46"/>
       <use x="179.199219" xlink:href="#DejaVuSans-48"/>
       <use x="242.822266" xlink:href="#DejaVuSans-48"/>
      </g>
     </g>
    </g>
    <g id="ytick_2">
     <g id="line2d_9">
      <g>
       <use style="stroke:#000000;stroke-width:0.8;" x="57.6" xlink:href="#m6aa96a25b2" y="265.248763"/>
      </g>
     </g>
     <g id="text_9">
      <!-- −0.75 -->
      <defs>
       <path d="M 8.203125 72.90625 
L 55.078125 72.90625 
L 55.078125 68.703125 
L 28.609375 0 
L 18.3125 0 
L 43.21875 64.59375 
L 8.203125 64.59375 
z
" id="DejaVuSans-55"/>
      </defs>
      <g transform="translate(19.954687 269.047981)scale(0.1 -0.1)">
       <use xlink:href="#DejaVuSans-8722"/>
       <use x="83.789062" xlink:href="#DejaVuSans-48"/>
       <use x="147.412109" xlink:href="#DejaVuSans-46"/>
       <use x="179.199219" xlink:href="#DejaVuSans-55"/>
       <use x="242.822266" xlink:href="#DejaVuSans-53"/>
      </g>
     </g>
    </g>
    <g id="ytick_3">
     <g id="line2d_10">
      <g>
       <use style="stroke:#000000;stroke-width:0.8;" x="57.6" xlink:href="#m6aa96a25b2" y="235.008341"/>
      </g>
     </g>
     <g id="text_10">
      <!-- −0.50 -->
      <g transform="translate(19.954687 238.80756)scale(0.1 -0.1)">
       <use xlink:href="#DejaVuSans-8722"/>
       <use x="83.789062" xlink:href="#DejaVuSans-48"/>
       <use x="147.412109" xlink:href="#DejaVuSans-46"/>
       <use x="179.199219" xlink:href="#DejaVuSans-53"/>
       <use x="242.822266" xlink:href="#DejaVuSans-48"/>
      </g>
     </g>
    </g>
    <g id="ytick_4">
     <g id="line2d_11">
      <g>
       <use style="stroke:#000000;stroke-width:0.8;" x="57.6" xlink:href="#m6aa96a25b2" y="204.767919"/>
      </g>
     </g>
     <g id="text_11">
      <!-- −0.25 -->
      <g transform="translate(19.954687 208.567138)scale(0.1 -0.1)">
       <use xlink:href="#DejaVuSans-8722"/>
       <use x="83.789062" xlink:href="#DejaVuSans-48"/>
       <use x="147.412109" xlink:href="#DejaVuSans-46"/>
       <use x="179.199219" xlink:href="#DejaVuSans-50"/>
       <use x="242.822266" xlink:href="#DejaVuSans-53"/>
      </g>
     </g>
    </g>
    <g id="ytick_5">
     <g id="line2d_12">
      <g>
       <use style="stroke:#000000;stroke-width:0.8;" x="57.6" xlink:href="#m6aa96a25b2" y="174.527497"/>
      </g>
     </g>
     <g id="text_12">
      <!-- 0.00 -->
      <g transform="translate(28.334375 178.326716)scale(0.1 -0.1)">
       <use xlink:href="#DejaVuSans-48"/>
       <use x="63.623047" xlink:href="#DejaVuSans-46"/>
       <use x="95.410156" xlink:href="#DejaVuSans-48"/>
       <use x="159.033203" xlink:href="#DejaVuSans-48"/>
      </g>
     </g>
    </g>
    <g id="ytick_6">
     <g id="line2d_13">
      <g>
       <use style="stroke:#000000;stroke-width:0.8;" x="57.6" xlink:href="#m6aa96a25b2" y="144.287075"/>
      </g>
     </g>
     <g id="text_13">
      <!-- 0.25 -->
      <g transform="translate(28.334375 148.086294)scale(0.1 -0.1)">
       <use xlink:href="#DejaVuSans-48"/>
       <use x="63.623047" xlink:href="#DejaVuSans-46"/>
       <use x="95.410156" xlink:href="#DejaVuSans-50"/>
       <use x="159.033203" xlink:href="#DejaVuSans-53"/>
      </g>
     </g>
    </g>
    <g id="ytick_7">
     <g id="line2d_14">
      <g>
       <use style="stroke:#000000;stroke-width:0.8;" x="57.6" xlink:href="#m6aa96a25b2" y="114.046653"/>
      </g>
     </g>
     <g id="text_14">
      <!-- 0.50 -->
      <g transform="translate(28.334375 117.845872)scale(0.1 -0.1)">
       <use xlink:href="#DejaVuSans-48"/>
       <use x="63.623047" xlink:href="#DejaVuSans-46"/>
       <use x="95.410156" xlink:href="#DejaVuSans-53"/>
       <use x="159.033203" xlink:href="#DejaVuSans-48"/>
      </g>
     </g>
    </g>
    <g id="ytick_8">
     <g id="line2d_15">
      <g>
       <use style="stroke:#000000;stroke-width:0.8;" x="57.6" xlink:href="#m6aa96a25b2" y="83.806231"/>
      </g>
     </g>
     <g id="text_15">
      <!-- 0.75 -->
      <g transform="translate(28.334375 87.60545)scale(0.1 -0.1)">
       <use xlink:href="#DejaVuSans-48"/>
       <use x="63.623047" xlink:href="#DejaVuSans-46"/>
       <use x="95.410156" xlink:href="#DejaVuSans-55"/>
       <use x="159.033203" xlink:href="#DejaVuSans-53"/>
      </g>
     </g>
    </g>
    <g id="ytick_9">
     <g id="line2d_16">
      <g>
       <use style="stroke:#000000;stroke-width:0.8;" x="57.6" xlink:href="#m6aa96a25b2" y="53.565809"/>
      </g>
     </g>
     <g id="text_16">
      <!-- 1.00 -->
      <g transform="translate(28.334375 57.365028)scale(0.1 -0.1)">
       <use xlink:href="#DejaVuSans-49"/>
       <use x="63.623047" xlink:href="#DejaVuSans-46"/>
       <use x="95.410156" xlink:href="#DejaVuSans-48"/>
       <use x="159.033203" xlink:href="#DejaVuSans-48"/>
      </g>
     </g>
    </g>
   </g>
   <g id="line2d_17">
    <path clip-path="url(#p81019b0803)" d="M 73.832727 174.527497 
L 86.239907 145.774586 
L 92.443497 131.915811 
L 97.613156 120.826785 
L 102.782814 110.274318 
L 106.918541 102.289729 
L 111.054268 94.767214 
L 115.189994 87.754894 
L 118.291789 82.857582 
L 121.393584 78.290182 
L 124.495379 74.069133 
L 127.597174 70.209626 
L 130.698969 66.725551 
L 133.800764 63.629446 
L 136.902559 60.932454 
L 140.004354 58.644282 
L 142.072218 57.350084 
L 144.140081 56.243344 
L 146.207944 55.325835 
L 148.275808 54.599022 
L 150.343671 54.064069 
L 152.411534 53.721833 
L 154.479398 53.572859 
L 156.547261 53.617387 
L 158.615124 53.855346 
L 160.682988 54.286354 
L 162.750851 54.909722 
L 164.818715 55.724453 
L 166.886578 56.729244 
L 168.954441 57.922487 
L 171.022305 59.302273 
L 174.1241 61.716811 
L 177.225895 64.537346 
L 180.32769 67.753726 
L 183.429485 71.354377 
L 186.53128 75.326339 
L 189.633075 79.655319 
L 192.73487 84.325736 
L 195.836665 89.320782 
L 199.972391 96.45459 
L 204.108118 104.087799 
L 208.243845 112.171581 
L 213.413503 122.830905 
L 218.583162 134.006765 
L 224.786752 147.9421 
L 234.092137 169.49783 
L 248.56718 203.093243 
L 254.77077 216.958828 
L 259.940428 228.055517 
L 265.110087 238.617371 
L 269.245814 246.61065 
L 273.38154 254.142843 
L 277.517267 261.16577 
L 280.619062 266.071604 
L 283.720857 270.647978 
L 286.822652 274.878423 
L 289.924447 278.747712 
L 293.026242 282.241921 
L 296.128037 285.348475 
L 299.229832 288.056193 
L 302.331627 290.35533 
L 304.39949 291.656951 
L 306.467354 292.77119 
L 308.535217 293.696264 
L 310.60308 294.430694 
L 312.670944 294.973304 
L 314.738807 295.323227 
L 316.806671 295.479902 
L 318.874534 295.443079 
L 320.942397 295.212817 
L 323.010261 294.789484 
L 325.078124 294.173758 
L 327.145987 293.366623 
L 329.213851 292.369371 
L 331.281714 291.183597 
L 333.349577 289.811198 
L 336.451372 287.407562 
L 339.553167 284.597679 
L 342.654962 281.391663 
L 345.756757 277.801051 
L 348.858552 273.838766 
L 351.960347 269.519067 
L 355.062142 264.857502 
L 358.163937 259.870845 
L 362.299664 252.747454 
L 366.435391 245.123721 
L 370.571118 237.048413 
L 375.740776 226.398192 
L 380.910434 215.229697 
L 387.114024 201.300799 
L 396.419409 179.749641 
L 398.487273 174.912796 
L 398.487273 174.912796 
" style="fill:none;stroke:#1f77b4;stroke-linecap:square;stroke-width:4;"/>
   </g>
   <g id="line2d_18">
    <path clip-path="url(#p81019b0803)" d="M 73.832727 174.527497 
L 81.070249 141.099051 
L 85.205976 123.00514 
L 87.273839 114.424037 
M 142.072218 116.366382 
L 145.174013 129.481481 
L 149.309739 147.9421 
L 156.547261 181.588532 
L 162.750851 210.090029 
L 166.886578 228.055517 
L 169.988373 240.656169 
L 173.090168 252.30571 
L 176.191963 262.836588 
L 178.259826 269.160169 
L 180.32769 274.878423 
L 182.395553 279.954773 
L 184.463416 284.356749 
L 186.53128 288.056193 
L 188.599143 291.02944 
L 189.633075 292.237611 
L 190.667006 293.257472 
L 191.700938 294.08739 
L 192.73487 294.726038 
L 193.768801 295.172393 
L 194.802733 295.425743 
L 195.836665 295.485681 
L 196.870596 295.352112 
L 197.904528 295.025249 
L 198.93846 294.505616 
L 199.972391 293.794043 
L 201.006323 292.891669 
L 202.040255 291.799938 
L 203.074186 290.520596 
L 205.14205 287.407562 
L 207.209913 283.572481 
L 209.277776 279.039885 
L 211.34564 273.838766 
L 213.413503 268.002394 
L 215.481367 261.568101 
L 217.54923 254.577045 
L 220.651025 243.145258 
L 223.75282 230.726561 
L 227.888547 212.943546 
L 233.058205 189.390543 
L 244.431453 136.842928 
L 248.56718 119.011951 
L 249.601112 114.758712 
M 304.39949 116.02884 
L 307.501285 129.124123 
L 311.637012 147.566357 
L 318.874534 181.203854 
L 325.078124 209.721577 
L 329.213851 227.709725 
L 332.315646 240.333209 
L 335.417441 252.010227 
L 338.519236 262.572833 
L 340.587099 268.919702 
L 342.654962 274.662784 
L 344.722826 279.765341 
L 346.790689 284.194736 
L 348.858552 287.922634 
L 350.926416 290.92519 
L 351.960347 292.148279 
L 352.994279 293.183199 
L 354.028211 294.028295 
L 355.062142 294.682216 
L 356.096074 295.143914 
L 357.130006 295.412652 
L 358.163937 295.488 
L 359.197869 295.369837 
L 360.231801 295.058351 
L 361.265732 294.554042 
L 362.299664 293.857716 
L 363.333596 292.970488 
L 364.367528 291.893775 
L 365.401459 290.629302 
L 367.469323 287.545461 
L 369.537186 283.738691 
L 371.605049 279.233342 
L 373.672913 274.058232 
L 375.740776 268.246466 
L 377.808639 261.835218 
L 379.876503 254.865499 
L 382.978298 243.462217 
L 386.080093 231.067466 
L 390.215819 213.308703 
L 395.385478 189.772847 
L 398.487273 175.298092 
L 398.487273 175.298092 
" style="fill:none;stroke:#ff7f0e;stroke-linecap:square;stroke-width:2;"/>
   </g>
   <g id="line2d_19">
    <defs>
     <path d="M 0 5 
C 1.326016 5 2.597899 4.473168 3.535534 3.535534 
C 4.473168 2.597899 5 1.326016 5 0 
C 5 -1.326016 4.473168 -2.597899 3.535534 -3.535534 
C 2.597899 -4.473168 1.326016 -5 0 -5 
C -1.326016 -5 -2.597899 -4.473168 -3.535534 -3.535534 
C -4.473168 -2.597899 -5 -1.326016 -5 0 
C -5 1.326016 -4.473168 2.597899 -3.535534 3.535534 
C -2.597899 4.473168 -1.326016 5 0 5 
z
" id="m58237fb9ce" style="stroke:#2ca02c;"/>
    </defs>
    <g clip-path="url(#p81019b0803)">
     <use style="fill:#2ca02c;stroke:#2ca02c;" x="73.832727" xlink:href="#m58237fb9ce" y="174.527497"/>
     <use style="fill:#2ca02c;stroke:#2ca02c;" x="74.866659" xlink:href="#m58237fb9ce" y="167.27415"/>
     <use style="fill:#2ca02c;stroke:#2ca02c;" x="75.900591" xlink:href="#m58237fb9ce" y="160.046906"/>
     <use style="fill:#2ca02c;stroke:#2ca02c;" x="76.934522" xlink:href="#m58237fb9ce" y="152.871778"/>
     <use style="fill:#2ca02c;stroke:#2ca02c;" x="77.968454" xlink:href="#m58237fb9ce" y="145.774586"/>
     <use style="fill:#2ca02c;stroke:#2ca02c;" x="79.002386" xlink:href="#m58237fb9ce" y="138.780874"/>
     <use style="fill:#2ca02c;stroke:#2ca02c;" x="80.036317" xlink:href="#m58237fb9ce" y="131.915811"/>
     <use style="fill:#2ca02c;stroke:#2ca02c;" x="81.070249" xlink:href="#m58237fb9ce" y="125.204104"/>
     <use style="fill:#2ca02c;stroke:#2ca02c;" x="82.104181" xlink:href="#m58237fb9ce" y="118.669909"/>
     <use style="fill:#2ca02c;stroke:#2ca02c;" x="83.138112" xlink:href="#m58237fb9ce" y="112.33674"/>
     <use style="fill:#2ca02c;stroke:#2ca02c;" x="84.172044" xlink:href="#m58237fb9ce" y="106.22739"/>
     <use style="fill:#2ca02c;stroke:#2ca02c;" x="85.205976" xlink:href="#m58237fb9ce" y="100.363848"/>
     <use style="fill:#2ca02c;stroke:#2ca02c;" x="86.239907" xlink:href="#m58237fb9ce" y="94.767214"/>
     <use style="fill:#2ca02c;stroke:#2ca02c;" x="87.273839" xlink:href="#m58237fb9ce" y="89.457632"/>
     <use style="fill:#2ca02c;stroke:#2ca02c;" x="88.307771" xlink:href="#m58237fb9ce" y="84.454209"/>
     <use style="fill:#2ca02c;stroke:#2ca02c;" x="89.341702" xlink:href="#m58237fb9ce" y="79.774952"/>
     <use style="fill:#2ca02c;stroke:#2ca02c;" x="90.375634" xlink:href="#m58237fb9ce" y="75.436702"/>
     <use style="fill:#2ca02c;stroke:#2ca02c;" x="91.409566" xlink:href="#m58237fb9ce" y="71.455073"/>
     <use style="fill:#2ca02c;stroke:#2ca02c;" x="92.443497" xlink:href="#m58237fb9ce" y="67.844392"/>
     <use style="fill:#2ca02c;stroke:#2ca02c;" x="93.477429" xlink:href="#m58237fb9ce" y="64.617656"/>
     <use style="fill:#2ca02c;stroke:#2ca02c;" x="94.511361" xlink:href="#m58237fb9ce" y="61.786476"/>
     <use style="fill:#2ca02c;stroke:#2ca02c;" x="95.545292" xlink:href="#m58237fb9ce" y="59.361042"/>
     <use style="fill:#2ca02c;stroke:#2ca02c;" x="96.579224" xlink:href="#m58237fb9ce" y="57.350084"/>
     <use style="fill:#2ca02c;stroke:#2ca02c;" x="97.613156" xlink:href="#m58237fb9ce" y="55.760837"/>
     <use style="fill:#2ca02c;stroke:#2ca02c;" x="98.647087" xlink:href="#m58237fb9ce" y="54.599022"/>
     <use style="fill:#2ca02c;stroke:#2ca02c;" x="99.681019" xlink:href="#m58237fb9ce" y="53.86882"/>
     <use style="fill:#2ca02c;stroke:#2ca02c;" x="100.714951" xlink:href="#m58237fb9ce" y="53.572859"/>
     <use style="fill:#2ca02c;stroke:#2ca02c;" x="101.748882" xlink:href="#m58237fb9ce" y="53.712204"/>
     <use style="fill:#2ca02c;stroke:#2ca02c;" x="102.782814" xlink:href="#m58237fb9ce" y="54.286354"/>
     <use style="fill:#2ca02c;stroke:#2ca02c;" x="103.816746" xlink:href="#m58237fb9ce" y="55.293242"/>
     <use style="fill:#2ca02c;stroke:#2ca02c;" x="104.850677" xlink:href="#m58237fb9ce" y="56.729244"/>
     <use style="fill:#2ca02c;stroke:#2ca02c;" x="105.884609" xlink:href="#m58237fb9ce" y="58.589193"/>
     <use style="fill:#2ca02c;stroke:#2ca02c;" x="106.918541" xlink:href="#m58237fb9ce" y="60.866395"/>
     <use style="fill:#2ca02c;stroke:#2ca02c;" x="107.952472" xlink:href="#m58237fb9ce" y="63.552654"/>
     <use style="fill:#2ca02c;stroke:#2ca02c;" x="108.986404" xlink:href="#m58237fb9ce" y="66.638302"/>
     <use style="fill:#2ca02c;stroke:#2ca02c;" x="110.020336" xlink:href="#m58237fb9ce" y="70.112235"/>
     <use style="fill:#2ca02c;stroke:#2ca02c;" x="111.054268" xlink:href="#m58237fb9ce" y="73.96195"/>
     <use style="fill:#2ca02c;stroke:#2ca02c;" x="112.088199" xlink:href="#m58237fb9ce" y="78.173593"/>
     <use style="fill:#2ca02c;stroke:#2ca02c;" x="113.122131" xlink:href="#m58237fb9ce" y="82.732006"/>
     <use style="fill:#2ca02c;stroke:#2ca02c;" x="114.156063" xlink:href="#m58237fb9ce" y="87.620783"/>
     <use style="fill:#2ca02c;stroke:#2ca02c;" x="115.189994" xlink:href="#m58237fb9ce" y="92.822331"/>
     <use style="fill:#2ca02c;stroke:#2ca02c;" x="116.223926" xlink:href="#m58237fb9ce" y="98.317929"/>
     <use style="fill:#2ca02c;stroke:#2ca02c;" x="117.257858" xlink:href="#m58237fb9ce" y="104.087799"/>
     <use style="fill:#2ca02c;stroke:#2ca02c;" x="118.291789" xlink:href="#m58237fb9ce" y="110.111176"/>
     <use style="fill:#2ca02c;stroke:#2ca02c;" x="119.325721" xlink:href="#m58237fb9ce" y="116.366382"/>
     <use style="fill:#2ca02c;stroke:#2ca02c;" x="120.359653" xlink:href="#m58237fb9ce" y="122.830905"/>
     <use style="fill:#2ca02c;stroke:#2ca02c;" x="121.393584" xlink:href="#m58237fb9ce" y="129.481481"/>
     <use style="fill:#2ca02c;stroke:#2ca02c;" x="122.427516" xlink:href="#m58237fb9ce" y="136.294173"/>
     <use style="fill:#2ca02c;stroke:#2ca02c;" x="123.461448" xlink:href="#m58237fb9ce" y="143.244464"/>
     <use style="fill:#2ca02c;stroke:#2ca02c;" x="124.495379" xlink:href="#m58237fb9ce" y="150.30734"/>
     <use style="fill:#2ca02c;stroke:#2ca02c;" x="125.529311" xlink:href="#m58237fb9ce" y="157.457383"/>
     <use style="fill:#2ca02c;stroke:#2ca02c;" x="126.563243" xlink:href="#m58237fb9ce" y="164.668859"/>
     <use style="fill:#2ca02c;stroke:#2ca02c;" x="127.597174" xlink:href="#m58237fb9ce" y="171.915816"/>
     <use style="fill:#2ca02c;stroke:#2ca02c;" x="128.631106" xlink:href="#m58237fb9ce" y="179.172172"/>
     <use style="fill:#2ca02c;stroke:#2ca02c;" x="129.665038" xlink:href="#m58237fb9ce" y="186.411813"/>
     <use style="fill:#2ca02c;stroke:#2ca02c;" x="130.698969" xlink:href="#m58237fb9ce" y="193.608682"/>
     <use style="fill:#2ca02c;stroke:#2ca02c;" x="131.732901" xlink:href="#m58237fb9ce" y="200.73688"/>
     <use style="fill:#2ca02c;stroke:#2ca02c;" x="132.766833" xlink:href="#m58237fb9ce" y="207.770753"/>
     <use style="fill:#2ca02c;stroke:#2ca02c;" x="133.800764" xlink:href="#m58237fb9ce" y="214.684986"/>
     <use style="fill:#2ca02c;stroke:#2ca02c;" x="134.834696" xlink:href="#m58237fb9ce" y="221.454695"/>
     <use style="fill:#2ca02c;stroke:#2ca02c;" x="135.868628" xlink:href="#m58237fb9ce" y="228.055517"/>
     <use style="fill:#2ca02c;stroke:#2ca02c;" x="136.902559" xlink:href="#m58237fb9ce" y="234.463695"/>
     <use style="fill:#2ca02c;stroke:#2ca02c;" x="173.090168" xlink:href="#m58237fb9ce" y="234.965022"/>
     <use style="fill:#2ca02c;stroke:#2ca02c;" x="174.1241" xlink:href="#m58237fb9ce" y="228.573185"/>
     <use style="fill:#2ca02c;stroke:#2ca02c;" x="175.158031" xlink:href="#m58237fb9ce" y="221.986842"/>
     <use style="fill:#2ca02c;stroke:#2ca02c;" x="176.191963" xlink:href="#m58237fb9ce" y="215.229697"/>
     <use style="fill:#2ca02c;stroke:#2ca02c;" x="177.225895" xlink:href="#m58237fb9ce" y="208.326067"/>
     <use style="fill:#2ca02c;stroke:#2ca02c;" x="178.259826" xlink:href="#m58237fb9ce" y="201.300799"/>
     <use style="fill:#2ca02c;stroke:#2ca02c;" x="179.293758" xlink:href="#m58237fb9ce" y="194.179177"/>
     <use style="fill:#2ca02c;stroke:#2ca02c;" x="180.32769" xlink:href="#m58237fb9ce" y="186.986829"/>
     <use style="fill:#2ca02c;stroke:#2ca02c;" x="181.361621" xlink:href="#m58237fb9ce" y="179.749641"/>
     <use style="fill:#2ca02c;stroke:#2ca02c;" x="182.395553" xlink:href="#m58237fb9ce" y="172.493659"/>
     <use style="fill:#2ca02c;stroke:#2ca02c;" x="183.429485" xlink:href="#m58237fb9ce" y="165.244997"/>
     <use style="fill:#2ca02c;stroke:#2ca02c;" x="184.463416" xlink:href="#m58237fb9ce" y="158.029742"/>
     <use style="fill:#2ca02c;stroke:#2ca02c;" x="185.497348" xlink:href="#m58237fb9ce" y="150.873861"/>
     <use style="fill:#2ca02c;stroke:#2ca02c;" x="186.53128" xlink:href="#m58237fb9ce" y="143.803107"/>
     <use style="fill:#2ca02c;stroke:#2ca02c;" x="187.565211" xlink:href="#m58237fb9ce" y="136.842928"/>
     <use style="fill:#2ca02c;stroke:#2ca02c;" x="188.599143" xlink:href="#m58237fb9ce" y="130.018373"/>
     <use style="fill:#2ca02c;stroke:#2ca02c;" x="189.633075" xlink:href="#m58237fb9ce" y="123.354002"/>
     <use style="fill:#2ca02c;stroke:#2ca02c;" x="190.667006" xlink:href="#m58237fb9ce" y="116.873801"/>
     <use style="fill:#2ca02c;stroke:#2ca02c;" x="191.700938" xlink:href="#m58237fb9ce" y="110.601091"/>
     <use style="fill:#2ca02c;stroke:#2ca02c;" x="192.73487" xlink:href="#m58237fb9ce" y="104.558447"/>
     <use style="fill:#2ca02c;stroke:#2ca02c;" x="193.768801" xlink:href="#m58237fb9ce" y="98.767616"/>
     <use style="fill:#2ca02c;stroke:#2ca02c;" x="194.802733" xlink:href="#m58237fb9ce" y="93.249439"/>
     <use style="fill:#2ca02c;stroke:#2ca02c;" x="195.836665" xlink:href="#m58237fb9ce" y="88.023775"/>
     <use style="fill:#2ca02c;stroke:#2ca02c;" x="196.870596" xlink:href="#m58237fb9ce" y="83.10943"/>
     <use style="fill:#2ca02c;stroke:#2ca02c;" x="197.904528" xlink:href="#m58237fb9ce" y="78.524093"/>
     <use style="fill:#2ca02c;stroke:#2ca02c;" x="198.93846" xlink:href="#m58237fb9ce" y="74.284264"/>
     <use style="fill:#2ca02c;stroke:#2ca02c;" x="199.972391" xlink:href="#m58237fb9ce" y="70.405202"/>
     <use style="fill:#2ca02c;stroke:#2ca02c;" x="201.006323" xlink:href="#m58237fb9ce" y="66.900868"/>
     <use style="fill:#2ca02c;stroke:#2ca02c;" x="202.040255" xlink:href="#m58237fb9ce" y="63.783874"/>
     <use style="fill:#2ca02c;stroke:#2ca02c;" x="203.074186" xlink:href="#m58237fb9ce" y="61.065437"/>
     <use style="fill:#2ca02c;stroke:#2ca02c;" x="204.108118" xlink:href="#m58237fb9ce" y="58.755341"/>
     <use style="fill:#2ca02c;stroke:#2ca02c;" x="205.14205" xlink:href="#m58237fb9ce" y="56.8619"/>
     <use style="fill:#2ca02c;stroke:#2ca02c;" x="206.175981" xlink:href="#m58237fb9ce" y="55.391928"/>
     <use style="fill:#2ca02c;stroke:#2ca02c;" x="207.209913" xlink:href="#m58237fb9ce" y="54.350715"/>
     <use style="fill:#2ca02c;stroke:#2ca02c;" x="208.243845" xlink:href="#m58237fb9ce" y="53.742009"/>
     <use style="fill:#2ca02c;stroke:#2ca02c;" x="209.277776" xlink:href="#m58237fb9ce" y="53.568"/>
     <use style="fill:#2ca02c;stroke:#2ca02c;" x="210.311708" xlink:href="#m58237fb9ce" y="53.829315"/>
     <use style="fill:#2ca02c;stroke:#2ca02c;" x="211.34564" xlink:href="#m58237fb9ce" y="54.525013"/>
     <use style="fill:#2ca02c;stroke:#2ca02c;" x="212.379572" xlink:href="#m58237fb9ce" y="55.65259"/>
     <use style="fill:#2ca02c;stroke:#2ca02c;" x="213.413503" xlink:href="#m58237fb9ce" y="57.207989"/>
     <use style="fill:#2ca02c;stroke:#2ca02c;" x="214.447435" xlink:href="#m58237fb9ce" y="59.185611"/>
     <use style="fill:#2ca02c;stroke:#2ca02c;" x="215.481367" xlink:href="#m58237fb9ce" y="61.578339"/>
     <use style="fill:#2ca02c;stroke:#2ca02c;" x="216.515298" xlink:href="#m58237fb9ce" y="64.377563"/>
     <use style="fill:#2ca02c;stroke:#2ca02c;" x="217.54923" xlink:href="#m58237fb9ce" y="67.573207"/>
     <use style="fill:#2ca02c;stroke:#2ca02c;" x="218.583162" xlink:href="#m58237fb9ce" y="71.153771"/>
     <use style="fill:#2ca02c;stroke:#2ca02c;" x="219.617093" xlink:href="#m58237fb9ce" y="75.106369"/>
     <use style="fill:#2ca02c;stroke:#2ca02c;" x="220.651025" xlink:href="#m58237fb9ce" y="79.416775"/>
     <use style="fill:#2ca02c;stroke:#2ca02c;" x="221.684957" xlink:href="#m58237fb9ce" y="84.069478"/>
     <use style="fill:#2ca02c;stroke:#2ca02c;" x="222.718888" xlink:href="#m58237fb9ce" y="89.047732"/>
     <use style="fill:#2ca02c;stroke:#2ca02c;" x="223.75282" xlink:href="#m58237fb9ce" y="94.33362"/>
     <use style="fill:#2ca02c;stroke:#2ca02c;" x="224.786752" xlink:href="#m58237fb9ce" y="99.90812"/>
     <use style="fill:#2ca02c;stroke:#2ca02c;" x="225.820683" xlink:href="#m58237fb9ce" y="105.751169"/>
     <use style="fill:#2ca02c;stroke:#2ca02c;" x="226.854615" xlink:href="#m58237fb9ce" y="111.841739"/>
     <use style="fill:#2ca02c;stroke:#2ca02c;" x="227.888547" xlink:href="#m58237fb9ce" y="118.157909"/>
     <use style="fill:#2ca02c;stroke:#2ca02c;" x="228.922478" xlink:href="#m58237fb9ce" y="124.67695"/>
     <use style="fill:#2ca02c;stroke:#2ca02c;" x="229.95641" xlink:href="#m58237fb9ce" y="131.375398"/>
     <use style="fill:#2ca02c;stroke:#2ca02c;" x="230.990342" xlink:href="#m58237fb9ce" y="138.229147"/>
     <use style="fill:#2ca02c;stroke:#2ca02c;" x="232.024273" xlink:href="#m58237fb9ce" y="145.213531"/>
     <use style="fill:#2ca02c;stroke:#2ca02c;" x="233.058205" xlink:href="#m58237fb9ce" y="152.303414"/>
     <use style="fill:#2ca02c;stroke:#2ca02c;" x="234.092137" xlink:href="#m58237fb9ce" y="159.47328"/>
     <use style="fill:#2ca02c;stroke:#2ca02c;" x="235.126068" xlink:href="#m58237fb9ce" y="166.697324"/>
     <use style="fill:#2ca02c;stroke:#2ca02c;" x="236.16" xlink:href="#m58237fb9ce" y="173.949549"/>
     <use style="fill:#2ca02c;stroke:#2ca02c;" x="237.193932" xlink:href="#m58237fb9ce" y="181.203854"/>
     <use style="fill:#2ca02c;stroke:#2ca02c;" x="238.227863" xlink:href="#m58237fb9ce" y="188.434131"/>
     <use style="fill:#2ca02c;stroke:#2ca02c;" x="239.261795" xlink:href="#m58237fb9ce" y="195.614359"/>
     <use style="fill:#2ca02c;stroke:#2ca02c;" x="240.295727" xlink:href="#m58237fb9ce" y="202.718697"/>
     <use style="fill:#2ca02c;stroke:#2ca02c;" x="241.329658" xlink:href="#m58237fb9ce" y="209.721577"/>
     <use style="fill:#2ca02c;stroke:#2ca02c;" x="242.36359" xlink:href="#m58237fb9ce" y="216.597797"/>
     <use style="fill:#2ca02c;stroke:#2ca02c;" x="243.397522" xlink:href="#m58237fb9ce" y="223.322609"/>
     <use style="fill:#2ca02c;stroke:#2ca02c;" x="244.431453" xlink:href="#m58237fb9ce" y="229.871811"/>
     <use style="fill:#2ca02c;stroke:#2ca02c;" x="281.652994" xlink:href="#m58237fb9ce" y="233.194703"/>
     <use style="fill:#2ca02c;stroke:#2ca02c;" x="282.686925" xlink:href="#m58237fb9ce" y="226.746005"/>
     <use style="fill:#2ca02c;stroke:#2ca02c;" x="283.720857" xlink:href="#m58237fb9ce" y="220.109377"/>
     <use style="fill:#2ca02c;stroke:#2ca02c;" x="284.754789" xlink:href="#m58237fb9ce" y="213.308703"/>
     <use style="fill:#2ca02c;stroke:#2ca02c;" x="285.78872" xlink:href="#m58237fb9ce" y="206.368459"/>
     <use style="fill:#2ca02c;stroke:#2ca02c;" x="286.822652" xlink:href="#m58237fb9ce" y="199.313621"/>
     <use style="fill:#2ca02c;stroke:#2ca02c;" x="287.856584" xlink:href="#m58237fb9ce" y="192.169581"/>
     <use style="fill:#2ca02c;stroke:#2ca02c;" x="288.890515" xlink:href="#m58237fb9ce" y="184.962048"/>
     <use style="fill:#2ca02c;stroke:#2ca02c;" x="289.924447" xlink:href="#m58237fb9ce" y="177.716961"/>
     <use style="fill:#2ca02c;stroke:#2ca02c;" x="290.958379" xlink:href="#m58237fb9ce" y="170.460396"/>
     <use style="fill:#2ca02c;stroke:#2ca02c;" x="291.99231" xlink:href="#m58237fb9ce" y="163.218469"/>
     <use style="fill:#2ca02c;stroke:#2ca02c;" x="293.026242" xlink:href="#m58237fb9ce" y="156.017241"/>
     <use style="fill:#2ca02c;stroke:#2ca02c;" x="294.060174" xlink:href="#m58237fb9ce" y="148.882631"/>
     <use style="fill:#2ca02c;stroke:#2ca02c;" x="295.094105" xlink:href="#m58237fb9ce" y="141.840314"/>
     <use style="fill:#2ca02c;stroke:#2ca02c;" x="296.128037" xlink:href="#m58237fb9ce" y="134.915636"/>
     <use style="fill:#2ca02c;stroke:#2ca02c;" x="297.161969" xlink:href="#m58237fb9ce" y="128.133518"/>
     <use style="fill:#2ca02c;stroke:#2ca02c;" x="298.1959" xlink:href="#m58237fb9ce" y="121.518368"/>
     <use style="fill:#2ca02c;stroke:#2ca02c;" x="299.229832" xlink:href="#m58237fb9ce" y="115.093994"/>
     <use style="fill:#2ca02c;stroke:#2ca02c;" x="300.263764" xlink:href="#m58237fb9ce" y="108.883516"/>
     <use style="fill:#2ca02c;stroke:#2ca02c;" x="301.297695" xlink:href="#m58237fb9ce" y="102.909285"/>
     <use style="fill:#2ca02c;stroke:#2ca02c;" x="302.331627" xlink:href="#m58237fb9ce" y="97.192803"/>
     <use style="fill:#2ca02c;stroke:#2ca02c;" x="303.365559" xlink:href="#m58237fb9ce" y="91.754642"/>
     <use style="fill:#2ca02c;stroke:#2ca02c;" x="304.39949" xlink:href="#m58237fb9ce" y="86.614374"/>
     <use style="fill:#2ca02c;stroke:#2ca02c;" x="305.433422" xlink:href="#m58237fb9ce" y="81.790499"/>
     <use style="fill:#2ca02c;stroke:#2ca02c;" x="306.467354" xlink:href="#m58237fb9ce" y="77.300376"/>
     <use style="fill:#2ca02c;stroke:#2ca02c;" x="307.501285" xlink:href="#m58237fb9ce" y="73.160166"/>
     <use style="fill:#2ca02c;stroke:#2ca02c;" x="308.535217" xlink:href="#m58237fb9ce" y="69.384769"/>
     <use style="fill:#2ca02c;stroke:#2ca02c;" x="309.569149" xlink:href="#m58237fb9ce" y="65.987773"/>
     <use style="fill:#2ca02c;stroke:#2ca02c;" x="310.60308" xlink:href="#m58237fb9ce" y="62.981402"/>
     <use style="fill:#2ca02c;stroke:#2ca02c;" x="311.637012" xlink:href="#m58237fb9ce" y="60.376476"/>
     <use style="fill:#2ca02c;stroke:#2ca02c;" x="312.670944" xlink:href="#m58237fb9ce" y="58.182371"/>
     <use style="fill:#2ca02c;stroke:#2ca02c;" x="313.704876" xlink:href="#m58237fb9ce" y="56.406983"/>
     <use style="fill:#2ca02c;stroke:#2ca02c;" x="314.738807" xlink:href="#m58237fb9ce" y="55.056701"/>
     <use style="fill:#2ca02c;stroke:#2ca02c;" x="315.772739" xlink:href="#m58237fb9ce" y="54.136385"/>
     <use style="fill:#2ca02c;stroke:#2ca02c;" x="316.806671" xlink:href="#m58237fb9ce" y="53.649347"/>
     <use style="fill:#2ca02c;stroke:#2ca02c;" x="317.840602" xlink:href="#m58237fb9ce" y="53.59734"/>
     <use style="fill:#2ca02c;stroke:#2ca02c;" x="318.874534" xlink:href="#m58237fb9ce" y="53.98055"/>
     <use style="fill:#2ca02c;stroke:#2ca02c;" x="319.908466" xlink:href="#m58237fb9ce" y="54.7976"/>
     <use style="fill:#2ca02c;stroke:#2ca02c;" x="320.942397" xlink:href="#m58237fb9ce" y="56.045548"/>
     <use style="fill:#2ca02c;stroke:#2ca02c;" x="321.976329" xlink:href="#m58237fb9ce" y="57.719903"/>
     <use style="fill:#2ca02c;stroke:#2ca02c;" x="323.010261" xlink:href="#m58237fb9ce" y="59.814639"/>
     <use style="fill:#2ca02c;stroke:#2ca02c;" x="324.044192" xlink:href="#m58237fb9ce" y="62.322217"/>
     <use style="fill:#2ca02c;stroke:#2ca02c;" x="325.078124" xlink:href="#m58237fb9ce" y="65.233614"/>
     <use style="fill:#2ca02c;stroke:#2ca02c;" x="326.112056" xlink:href="#m58237fb9ce" y="68.53835"/>
     <use style="fill:#2ca02c;stroke:#2ca02c;" x="327.145987" xlink:href="#m58237fb9ce" y="72.224533"/>
     <use style="fill:#2ca02c;stroke:#2ca02c;" x="328.179919" xlink:href="#m58237fb9ce" y="76.278896"/>
     <use style="fill:#2ca02c;stroke:#2ca02c;" x="329.213851" xlink:href="#m58237fb9ce" y="80.686848"/>
     <use style="fill:#2ca02c;stroke:#2ca02c;" x="330.247782" xlink:href="#m58237fb9ce" y="85.432525"/>
     <use style="fill:#2ca02c;stroke:#2ca02c;" x="331.281714" xlink:href="#m58237fb9ce" y="90.498847"/>
     <use style="fill:#2ca02c;stroke:#2ca02c;" x="332.315646" xlink:href="#m58237fb9ce" y="95.867582"/>
     <use style="fill:#2ca02c;stroke:#2ca02c;" x="333.349577" xlink:href="#m58237fb9ce" y="101.519408"/>
     <use style="fill:#2ca02c;stroke:#2ca02c;" x="334.383509" xlink:href="#m58237fb9ce" y="107.433984"/>
     <use style="fill:#2ca02c;stroke:#2ca02c;" x="335.417441" xlink:href="#m58237fb9ce" y="113.590024"/>
     <use style="fill:#2ca02c;stroke:#2ca02c;" x="336.451372" xlink:href="#m58237fb9ce" y="119.965374"/>
     <use style="fill:#2ca02c;stroke:#2ca02c;" x="337.485304" xlink:href="#m58237fb9ce" y="126.537088"/>
     <use style="fill:#2ca02c;stroke:#2ca02c;" x="338.519236" xlink:href="#m58237fb9ce" y="133.281515"/>
     <use style="fill:#2ca02c;stroke:#2ca02c;" x="339.553167" xlink:href="#m58237fb9ce" y="140.174384"/>
     <use style="fill:#2ca02c;stroke:#2ca02c;" x="340.587099" xlink:href="#m58237fb9ce" y="147.190887"/>
     <use style="fill:#2ca02c;stroke:#2ca02c;" x="341.621031" xlink:href="#m58237fb9ce" y="154.305772"/>
     <use style="fill:#2ca02c;stroke:#2ca02c;" x="342.654962" xlink:href="#m58237fb9ce" y="161.493433"/>
     <use style="fill:#2ca02c;stroke:#2ca02c;" x="343.688894" xlink:href="#m58237fb9ce" y="168.728003"/>
     <use style="fill:#2ca02c;stroke:#2ca02c;" x="344.722826" xlink:href="#m58237fb9ce" y="175.983445"/>
     <use style="fill:#2ca02c;stroke:#2ca02c;" x="345.756757" xlink:href="#m58237fb9ce" y="183.233647"/>
     <use style="fill:#2ca02c;stroke:#2ca02c;" x="346.790689" xlink:href="#m58237fb9ce" y="190.452517"/>
     <use style="fill:#2ca02c;stroke:#2ca02c;" x="347.824621" xlink:href="#m58237fb9ce" y="197.614073"/>
     <use style="fill:#2ca02c;stroke:#2ca02c;" x="348.858552" xlink:href="#m58237fb9ce" y="204.692543"/>
     <use style="fill:#2ca02c;stroke:#2ca02c;" x="349.892484" xlink:href="#m58237fb9ce" y="211.662451"/>
     <use style="fill:#2ca02c;stroke:#2ca02c;" x="350.926416" xlink:href="#m58237fb9ce" y="218.498713"/>
     <use style="fill:#2ca02c;stroke:#2ca02c;" x="351.960347" xlink:href="#m58237fb9ce" y="225.176727"/>
     <use style="fill:#2ca02c;stroke:#2ca02c;" x="352.994279" xlink:href="#m58237fb9ce" y="231.672458"/>
     <use style="fill:#2ca02c;stroke:#2ca02c;" x="390.215819" xlink:href="#m58237fb9ce" y="231.407797"/>
     <use style="fill:#2ca02c;stroke:#2ca02c;" x="391.249751" xlink:href="#m58237fb9ce" y="224.904061"/>
     <use style="fill:#2ca02c;stroke:#2ca02c;" x="392.283683" xlink:href="#m58237fb9ce" y="218.219024"/>
     <use style="fill:#2ca02c;stroke:#2ca02c;" x="393.317614" xlink:href="#m58237fb9ce" y="211.376745"/>
     <use style="fill:#2ca02c;stroke:#2ca02c;" x="394.351546" xlink:href="#m58237fb9ce" y="204.401848"/>
     <use style="fill:#2ca02c;stroke:#2ca02c;" x="395.385478" xlink:href="#m58237fb9ce" y="197.319436"/>
     <use style="fill:#2ca02c;stroke:#2ca02c;" x="396.419409" xlink:href="#m58237fb9ce" y="190.154997"/>
     <use style="fill:#2ca02c;stroke:#2ca02c;" x="397.453341" xlink:href="#m58237fb9ce" y="182.934316"/>
     <use style="fill:#2ca02c;stroke:#2ca02c;" x="398.487273" xlink:href="#m58237fb9ce" y="175.68338"/>
    </g>
   </g>
   <g id="patch_3">
    <path d="M 57.6 307.584 
L 57.6 41.472 
" style="fill:none;stroke:#000000;stroke-linecap:square;stroke-linejoin:miter;stroke-width:0.8;"/>
   </g>
   <g id="patch_4">
    <path d="M 414.72 307.584 
L 414.72 41.472 
" style="fill:none;stroke:#000000;stroke-linecap:square;stroke-linejoin:miter;stroke-width:0.8;"/>
   </g>
   <g id="patch_5">
    <path d="M 57.6 307.584 
L 414.72 307.584 
" style="fill:none;stroke:#000000;stroke-linecap:square;stroke-linejoin:miter;stroke-width:0.8;"/>
   </g>
   <g id="patch_6">
    <path d="M 57.6 41.472 
L 414.72 41.472 
" style="fill:none;stroke:#000000;stroke-linecap:square;stroke-linejoin:miter;stroke-width:0.8;"/>
   </g>
   <g id="text_17">
    <!-- Masked line demo -->
    <defs>
     <path d="M 9.8125 72.90625 
L 24.515625 72.90625 
L 43.109375 23.296875 
L 61.8125 72.90625 
L 76.515625 72.90625 
L 76.515625 0 
L 66.890625 0 
L 66.890625 64.015625 
L 48.09375 14.015625 
L 38.1875 14.015625 
L 19.390625 64.015625 
L 19.390625 0 
L 9.8125 0 
z
" id="DejaVuSans-77"/>
     <path d="M 34.28125 27.484375 
Q 23.390625 27.484375 19.1875 25 
Q 14.984375 22.515625 14.984375 16.5 
Q 14.984375 11.71875 18.140625 8.90625 
Q 21.296875 6.109375 26.703125 6.109375 
Q 34.1875 6.109375 38.703125 11.40625 
Q 43.21875 16.703125 43.21875 25.484375 
L 43.21875 27.484375 
z
M 52.203125 31.203125 
L 52.203125 0 
L 43.21875 0 
L 43.21875 8.296875 
Q 40.140625 3.328125 35.546875 0.953125 
Q 30.953125 -1.421875 24.3125 -1.421875 
Q 15.921875 -1.421875 10.953125 3.296875 
Q 6 8.015625 6 15.921875 
Q 6 25.140625 12.171875 29.828125 
Q 18.359375 34.515625 30.609375 34.515625 
L 43.21875 34.515625 
L 43.21875 35.40625 
Q 43.21875 41.609375 39.140625 45 
Q 35.0625 48.390625 27.6875 48.390625 
Q 23 48.390625 18.546875 47.265625 
Q 14.109375 46.140625 10.015625 43.890625 
L 10.015625 52.203125 
Q 14.9375 54.109375 19.578125 55.046875 
Q 24.21875 56 28.609375 56 
Q 40.484375 56 46.34375 49.84375 
Q 52.203125 43.703125 52.203125 31.203125 
z
" id="DejaVuSans-97"/>
     <path d="M 44.28125 53.078125 
L 44.28125 44.578125 
Q 40.484375 46.53125 36.375 47.5 
Q 32.28125 48.484375 27.875 48.484375 
Q 21.1875 48.484375 17.84375 46.4375 
Q 14.5 44.390625 14.5 40.28125 
Q 14.5 37.15625 16.890625 35.375 
Q 19.28125 33.59375 26.515625 31.984375 
L 29.59375 31.296875 
Q 39.15625 29.25 43.1875 25.515625 
Q 47.21875 21.78125 47.21875 15.09375 
Q 47.21875 7.46875 41.1875 3.015625 
Q 35.15625 -1.421875 24.609375 -1.421875 
Q 20.21875 -1.421875 15.453125 -0.5625 
Q 10.6875 0.296875 5.421875 2 
L 5.421875 11.28125 
Q 10.40625 8.6875 15.234375 7.390625 
Q 20.0625 6.109375 24.8125 6.109375 
Q 31.15625 6.109375 34.5625 8.28125 
Q 37.984375 10.453125 37.984375 14.40625 
Q 37.984375 18.0625 35.515625 20.015625 
Q 33.0625 21.96875 24.703125 23.78125 
L 21.578125 24.515625 
Q 13.234375 26.265625 9.515625 29.90625 
Q 5.8125 33.546875 5.8125 39.890625 
Q 5.8125 47.609375 11.28125 51.796875 
Q 16.75 56 26.8125 56 
Q 31.78125 56 36.171875 55.265625 
Q 40.578125 54.546875 44.28125 53.078125 
z
" id="DejaVuSans-115"/>
     <path d="M 9.078125 75.984375 
L 18.109375 75.984375 
L 18.109375 31.109375 
L 44.921875 54.6875 
L 56.390625 54.6875 
L 27.390625 29.109375 
L 57.625 0 
L 45.90625 0 
L 18.109375 26.703125 
L 18.109375 0 
L 9.078125 0 
z
" id="DejaVuSans-107"/>
     <path d="M 56.203125 29.59375 
L 56.203125 25.203125 
L 14.890625 25.203125 
Q 15.484375 15.921875 20.484375 11.0625 
Q 25.484375 6.203125 34.421875 6.203125 
Q 39.59375 6.203125 44.453125 7.46875 
Q 49.3125 8.734375 54.109375 11.28125 
L 54.109375 2.78125 
Q 49.265625 0.734375 44.1875 -0.34375 
Q 39.109375 -1.421875 33.890625 -1.421875 
Q 20.796875 -1.421875 13.15625 6.1875 
Q 5.515625 13.8125 5.515625 26.8125 
Q 5.515625 40.234375 12.765625 48.109375 
Q 20.015625 56 32.328125 56 
Q 43.359375 56 49.78125 48.890625 
Q 56.203125 41.796875 56.203125 29.59375 
z
M 47.21875 32.234375 
Q 47.125 39.59375 43.09375 43.984375 
Q 39.0625 48.390625 32.421875 48.390625 
Q 24.90625 48.390625 20.390625 44.140625 
Q 15.875 39.890625 15.1875 32.171875 
z
" id="DejaVuSans-101"/>
     <path d="M 45.40625 46.390625 
L 45.40625 75.984375 
L 54.390625 75.984375 
L 54.390625 0 
L 45.40625 0 
L 45.40625 8.203125 
Q 42.578125 3.328125 38.25 0.953125 
Q 33.9375 -1.421875 27.875 -1.421875 
Q 17.96875 -1.421875 11.734375 6.484375 
Q 5.515625 14.40625 5.515625 27.296875 
Q 5.515625 40.1875 11.734375 48.09375 
Q 17.96875 56 27.875 56 
Q 33.9375 56 38.25 53.625 
Q 42.578125 51.265625 45.40625 46.390625 
z
M 14.796875 27.296875 
Q 14.796875 17.390625 18.875 11.75 
Q 22.953125 6.109375 30.078125 6.109375 
Q 37.203125 6.109375 41.296875 11.75 
Q 45.40625 17.390625 45.40625 27.296875 
Q 45.40625 37.203125 41.296875 42.84375 
Q 37.203125 48.484375 30.078125 48.484375 
Q 22.953125 48.484375 18.875 42.84375 
Q 14.796875 37.203125 14.796875 27.296875 
z
" id="DejaVuSans-100"/>
     <path id="DejaVuSans-32"/>
     <path d="M 9.421875 75.984375 
L 18.40625 75.984375 
L 18.40625 0 
L 9.421875 0 
z
" id="DejaVuSans-108"/>
     <path d="M 9.421875 54.6875 
L 18.40625 54.6875 
L 18.40625 0 
L 9.421875 0 
z
M 9.421875 75.984375 
L 18.40625 75.984375 
L 18.40625 64.59375 
L 9.421875 64.59375 
z
" id="DejaVuSans-105"/>
     <path d="M 54.890625 33.015625 
L 54.890625 0 
L 45.90625 0 
L 45.90625 32.71875 
Q 45.90625 40.484375 42.875 44.328125 
Q 39.84375 48.1875 33.796875 48.1875 
Q 26.515625 48.1875 22.3125 43.546875 
Q 18.109375 38.921875 18.109375 30.90625 
L 18.109375 0 
L 9.078125 0 
L 9.078125 54.6875 
L 18.109375 54.6875 
L 18.109375 46.1875 
Q 21.34375 51.125 25.703125 53.5625 
Q 30.078125 56 35.796875 56 
Q 45.21875 56 50.046875 50.171875 
Q 54.890625 44.34375 54.890625 33.015625 
z
" id="DejaVuSans-110"/>
     <path d="M 52 44.1875 
Q 55.375 50.25 60.0625 53.125 
Q 64.75 56 71.09375 56 
Q 79.640625 56 84.28125 50.015625 
Q 88.921875 44.046875 88.921875 33.015625 
L 88.921875 0 
L 79.890625 0 
L 79.890625 32.71875 
Q 79.890625 40.578125 77.09375 44.375 
Q 74.3125 48.1875 68.609375 48.1875 
Q 61.625 48.1875 57.5625 43.546875 
Q 53.515625 38.921875 53.515625 30.90625 
L 53.515625 0 
L 44.484375 0 
L 44.484375 32.71875 
Q 44.484375 40.625 41.703125 44.40625 
Q 38.921875 48.1875 33.109375 48.1875 
Q 26.21875 48.1875 22.15625 43.53125 
Q 18.109375 38.875 18.109375 30.90625 
L 18.109375 0 
L 9.078125 0 
L 9.078125 54.6875 
L 18.109375 54.6875 
L 18.109375 46.1875 
Q 21.1875 51.21875 25.484375 53.609375 
Q 29.78125 56 35.6875 56 
Q 41.65625 56 45.828125 52.96875 
Q 50 49.953125 52 44.1875 
z
" id="DejaVuSans-109"/>
     <path d="M 30.609375 48.390625 
Q 23.390625 48.390625 19.1875 42.75 
Q 14.984375 37.109375 14.984375 27.296875 
Q 14.984375 17.484375 19.15625 11.84375 
Q 23.34375 6.203125 30.609375 6.203125 
Q 37.796875 6.203125 41.984375 11.859375 
Q 46.1875 17.53125 46.1875 27.296875 
Q 46.1875 37.015625 41.984375 42.703125 
Q 37.796875 48.390625 30.609375 48.390625 
z
M 30.609375 56 
Q 42.328125 56 49.015625 48.375 
Q 55.71875 40.765625 55.71875 27.296875 
Q 55.71875 13.875 49.015625 6.21875 
Q 42.328125 -1.421875 30.609375 -1.421875 
Q 18.84375 -1.421875 12.171875 6.21875 
Q 5.515625 13.875 5.515625 27.296875 
Q 5.515625 40.765625 12.171875 48.375 
Q 18.84375 56 30.609375 56 
z
" id="DejaVuSans-111"/>
    </defs>
    <g transform="translate(181.549688 35.472)scale(0.12 -0.12)">
     <use xlink:href="#DejaVuSans-77"/>
     <use x="86.279297" xlink:href="#DejaVuSans-97"/>
     <use x="147.558594" xlink:href="#DejaVuSans-115"/>
     <use x="199.658203" xlink:href="#DejaVuSans-107"/>
     <use x="257.521484" xlink:href="#DejaVuSans-101"/>
     <use x="319.044922" xlink:href="#DejaVuSans-100"/>
     <use x="382.521484" xlink:href="#DejaVuSans-32"/>
     <use x="414.308594" xlink:href="#DejaVuSans-108"/>
     <use x="442.091797" xlink:href="#DejaVuSans-105"/>
     <use x="469.875" xlink:href="#DejaVuSans-110"/>
     <use x="533.253906" xlink:href="#DejaVuSans-101"/>
     <use x="594.777344" xlink:href="#DejaVuSans-32"/>
     <use x="626.564453" xlink:href="#DejaVuSans-100"/>
     <use x="690.041016" xlink:href="#DejaVuSans-101"/>
     <use x="751.564453" xlink:href="#DejaVuSans-109"/>
     <use x="848.976562" xlink:href="#DejaVuSans-111"/>
    </g>
   </g>
   <g id="legend_1">
    <g id="patch_7">
     <path d="M 293.743438 93.506375 
L 407.72 93.506375 
Q 409.72 93.506375 409.72 91.506375 
L 409.72 48.472 
Q 409.72 46.472 407.72 46.472 
L 293.743438 46.472 
Q 291.743438 46.472 291.743438 48.472 
L 291.743438 91.506375 
Q 291.743438 93.506375 293.743438 93.506375 
z
" style="fill:#ffffff;opacity:0.8;stroke:#cccccc;stroke-linejoin:miter;"/>
    </g>
    <g id="line2d_20">
     <path d="M 295.743438 54.570438 
L 315.743438 54.570438 
" style="fill:none;stroke:#1f77b4;stroke-linecap:square;stroke-width:4;"/>
    </g>
    <g id="line2d_21"/>
    <g id="text_18">
     <!-- No mask -->
     <defs>
      <path d="M 9.8125 72.90625 
L 23.09375 72.90625 
L 55.421875 11.921875 
L 55.421875 72.90625 
L 64.984375 72.90625 
L 64.984375 0 
L 51.703125 0 
L 19.390625 60.984375 
L 19.390625 0 
L 9.8125 0 
z
" id="DejaVuSans-78"/>
     </defs>
     <g transform="translate(323.743438 58.070438)scale(0.1 -0.1)">
      <use xlink:href="#DejaVuSans-78"/>
      <use x="74.804688" xlink:href="#DejaVuSans-111"/>
      <use x="135.986328" xlink:href="#DejaVuSans-32"/>
      <use x="167.773438" xlink:href="#DejaVuSans-109"/>
      <use x="265.185547" xlink:href="#DejaVuSans-97"/>
      <use x="326.464844" xlink:href="#DejaVuSans-115"/>
      <use x="378.564453" xlink:href="#DejaVuSans-107"/>
     </g>
    </g>
    <g id="line2d_22">
     <path d="M 295.743438 69.248563 
L 315.743438 69.248563 
" style="fill:none;stroke:#ff7f0e;stroke-linecap:square;stroke-width:2;"/>
    </g>
    <g id="line2d_23"/>
    <g id="text_19">
     <!-- Masked if &gt; 0.5 -->
     <defs>
      <path d="M 37.109375 75.984375 
L 37.109375 68.5 
L 28.515625 68.5 
Q 23.6875 68.5 21.796875 66.546875 
Q 19.921875 64.59375 19.921875 59.515625 
L 19.921875 54.6875 
L 34.71875 54.6875 
L 34.71875 47.703125 
L 19.921875 47.703125 
L 19.921875 0 
L 10.890625 0 
L 10.890625 47.703125 
L 2.296875 47.703125 
L 2.296875 54.6875 
L 10.890625 54.6875 
L 10.890625 58.5 
Q 10.890625 67.625 15.140625 71.796875 
Q 19.390625 75.984375 28.609375 75.984375 
z
" id="DejaVuSans-102"/>
      <path d="M 10.59375 49.21875 
L 10.59375 58.109375 
L 73.1875 35.40625 
L 73.1875 27.296875 
L 10.59375 4.59375 
L 10.59375 13.484375 
L 60.890625 31.296875 
z
" id="DejaVuSans-62"/>
     </defs>
     <g transform="translate(323.743438 72.748563)scale(0.1 -0.1)">
      <use xlink:href="#DejaVuSans-77"/>
      <use x="86.279297" xlink:href="#DejaVuSans-97"/>
      <use x="147.558594" xlink:href="#DejaVuSans-115"/>
      <use x="199.658203" xlink:href="#DejaVuSans-107"/>
      <use x="257.521484" xlink:href="#DejaVuSans-101"/>
      <use x="319.044922" xlink:href="#DejaVuSans-100"/>
      <use x="382.521484" xlink:href="#DejaVuSans-32"/>
      <use x="414.308594" xlink:href="#DejaVuSans-105"/>
      <use x="442.091797" xlink:href="#DejaVuSans-102"/>
      <use x="477.296875" xlink:href="#DejaVuSans-32"/>
      <use x="509.083984" xlink:href="#DejaVuSans-62"/>
      <use x="592.873047" xlink:href="#DejaVuSans-32"/>
      <use x="624.660156" xlink:href="#DejaVuSans-48"/>
      <use x="688.283203" xlink:href="#DejaVuSans-46"/>
      <use x="720.070312" xlink:href="#DejaVuSans-53"/>
     </g>
    </g>
    <g id="line2d_24"/>
    <g id="line2d_25">
     <g>
      <use style="fill:#2ca02c;stroke:#2ca02c;" x="305.743438" xlink:href="#m58237fb9ce" y="83.926688"/>
     </g>
    </g>
    <g id="text_20">
     <!-- Masked if &lt; -0.5 -->
     <defs>
      <path d="M 73.1875 49.21875 
L 22.796875 31.296875 
L 73.1875 13.484375 
L 73.1875 4.59375 
L 10.59375 27.296875 
L 10.59375 35.40625 
L 73.1875 58.109375 
z
" id="DejaVuSans-60"/>
      <path d="M 4.890625 31.390625 
L 31.203125 31.390625 
L 31.203125 23.390625 
L 4.890625 23.390625 
z
" id="DejaVuSans-45"/>
     </defs>
     <g transform="translate(323.743438 87.426688)scale(0.1 -0.1)">
      <use xlink:href="#DejaVuSans-77"/>
      <use x="86.279297" xlink:href="#DejaVuSans-97"/>
      <use x="147.558594" xlink:href="#DejaVuSans-115"/>
      <use x="199.658203" xlink:href="#DejaVuSans-107"/>
      <use x="257.521484" xlink:href="#DejaVuSans-101"/>
      <use x="319.044922" xlink:href="#DejaVuSans-100"/>
      <use x="382.521484" xlink:href="#DejaVuSans-32"/>
      <use x="414.308594" xlink:href="#DejaVuSans-105"/>
      <use x="442.091797" xlink:href="#DejaVuSans-102"/>
      <use x="477.296875" xlink:href="#DejaVuSans-32"/>
      <use x="509.083984" xlink:href="#DejaVuSans-60"/>
      <use x="592.873047" xlink:href="#DejaVuSans-32"/>
      <use x="624.660156" xlink:href="#DejaVuSans-45"/>
      <use x="660.744141" xlink:href="#DejaVuSans-48"/>
      <use x="724.367188" xlink:href="#DejaVuSans-46"/>
      <use x="756.154297" xlink:href="#DejaVuSans-53"/>
     </g>
    </g>
   </g>
  </g>
 </g>
 <defs>
  <clipPath id="p81019b0803">
   <rect height="266.112" width="357.12" x="57.6" y="41.472"/>
  </clipPath>
 </defs>
</svg>
