<?xml version="1.0" encoding="utf-8" standalone="no"?>
<!DOCTYPE svg PUBLIC "-//W3C//DTD SVG 1.1//EN"
  "http://www.w3.org/Graphics/SVG/1.1/DTD/svg11.dtd">
<!-- Created with matplotlib (https://matplotlib.org/) -->
<svg height="345.6pt" version="1.1" viewBox="0 0 460.8 345.6" width="460.8pt" xmlns="http://www.w3.org/2000/svg" xmlns:xlink="http://www.w3.org/1999/xlink">
 <defs>
  <style type="text/css">
*{stroke-linecap:butt;stroke-linejoin:round;}
  </style>
 </defs>
 <g id="figure_1">
  <g id="patch_1">
   <path d="M 0 345.6 
L 460.8 345.6 
L 460.8 0 
L 0 0 
z
" style="fill:#ffffff;"/>
  </g>
  <g id="axes_1">
   <g id="patch_2">
    <path d="M 36.79 150.32 
L 219.33 150.32 
L 219.33 25.44 
L 36.79 25.44 
z
" style="fill:#ffffff;"/>
   </g>
   <g id="patch_3">
    <path clip-path="url(#pd5fa31cc61)" d="M 45.087273 150.32 
L 49.602795 150.32 
L 49.602795 149.364712 
L 45.087273 149.364712 
z
" style="fill:#ff0000;"/>
   </g>
   <g id="patch_4">
    <path clip-path="url(#pd5fa31cc61)" d="M 62.020482 150.32 
L 66.536005 150.32 
L 66.536005 139.33419 
L 62.020482 139.33419 
z
" style="fill:#ff0000;"/>
   </g>
   <g id="patch_5">
    <path clip-path="url(#pd5fa31cc61)" d="M 78.953692 150.32 
L 83.469215 150.32 
L 83.469215 114.496707 
L 78.953692 114.496707 
z
" style="fill:#ff0000;"/>
   </g>
   <g id="patch_6">
    <path clip-path="url(#pd5fa31cc61)" d="M 95.886902 150.32 
L 100.402424 150.32 
L 100.402424 70.553467 
L 95.886902 70.553467 
z
" style="fill:#ff0000;"/>
   </g>
   <g id="patch_7">
    <path clip-path="url(#pd5fa31cc61)" d="M 112.820111 150.32 
L 117.335634 150.32 
L 117.335634 36.163106 
L 112.820111 36.163106 
z
" style="fill:#ff0000;"/>
   </g>
   <g id="patch_8">
    <path clip-path="url(#pd5fa31cc61)" d="M 129.753321 150.32 
L 134.268844 150.32 
L 134.268844 34.730174 
L 129.753321 34.730174 
z
" style="fill:#ff0000;"/>
   </g>
   <g id="patch_9">
    <path clip-path="url(#pd5fa31cc61)" d="M 146.686531 150.32 
L 151.202053 150.32 
L 151.202053 73.419331 
L 146.686531 73.419331 
z
" style="fill:#ff0000;"/>
   </g>
   <g id="patch_10">
    <path clip-path="url(#pd5fa31cc61)" d="M 163.61974 150.32 
L 168.135263 150.32 
L 168.135263 118.795502 
L 163.61974 118.795502 
z
" style="fill:#ff0000;"/>
   </g>
   <g id="patch_11">
    <path clip-path="url(#pd5fa31cc61)" d="M 180.55295 150.32 
L 185.068472 150.32 
L 185.068472 138.856546 
L 180.55295 138.856546 
z
" style="fill:#ff0000;"/>
   </g>
   <g id="patch_12">
    <path clip-path="url(#pd5fa31cc61)" d="M 197.48616 150.32 
L 202.001682 150.32 
L 202.001682 149.842356 
L 197.48616 149.842356 
z
" style="fill:#ff0000;"/>
   </g>
   <g id="patch_13">
    <path clip-path="url(#pd5fa31cc61)" d="M 49.602795 150.32 
L 54.118318 150.32 
L 54.118318 146.021205 
L 49.602795 146.021205 
z
" style="fill:#d2b48c;"/>
   </g>
   <g id="patch_14">
    <path clip-path="url(#pd5fa31cc61)" d="M 66.536005 150.32 
L 71.051528 150.32 
L 71.051528 141.72241 
L 66.536005 141.72241 
z
" style="fill:#d2b48c;"/>
   </g>
   <g id="patch_15">
    <path clip-path="url(#pd5fa31cc61)" d="M 83.469215 150.32 
L 87.984737 150.32 
L 87.984737 108.76498 
L 83.469215 108.76498 
z
" style="fill:#d2b48c;"/>
   </g>
   <g id="patch_16">
    <path clip-path="url(#pd5fa31cc61)" d="M 100.402424 150.32 
L 104.917947 150.32 
L 104.917947 69.598179 
L 100.402424 69.598179 
z
" style="fill:#d2b48c;"/>
   </g>
   <g id="patch_17">
    <path clip-path="url(#pd5fa31cc61)" d="M 117.335634 150.32 
L 121.851156 150.32 
L 121.851156 33.774886 
L 117.335634 33.774886 
z
" style="fill:#d2b48c;"/>
   </g>
   <g id="patch_18">
    <path clip-path="url(#pd5fa31cc61)" d="M 134.268844 150.32 
L 138.784366 150.32 
L 138.784366 35.207818 
L 134.268844 35.207818 
z
" style="fill:#d2b48c;"/>
   </g>
   <g id="patch_19">
    <path clip-path="url(#pd5fa31cc61)" d="M 151.202053 150.32 
L 155.717576 150.32 
L 155.717576 84.405141 
L 151.202053 84.405141 
z
" style="fill:#d2b48c;"/>
   </g>
   <g id="patch_20">
    <path clip-path="url(#pd5fa31cc61)" d="M 168.135263 150.32 
L 172.650785 150.32 
L 172.650785 116.884926 
L 168.135263 116.884926 
z
" style="fill:#d2b48c;"/>
   </g>
   <g id="patch_21">
    <path clip-path="url(#pd5fa31cc61)" d="M 185.068472 150.32 
L 189.583995 150.32 
L 189.583995 141.244766 
L 185.068472 141.244766 
z
" style="fill:#d2b48c;"/>
   </g>
   <g id="patch_22">
    <path clip-path="url(#pd5fa31cc61)" d="M 202.001682 150.32 
L 206.517205 150.32 
L 206.517205 147.93178 
L 202.001682 147.93178 
z
" style="fill:#d2b48c;"/>
   </g>
   <g id="patch_23">
    <path clip-path="url(#pd5fa31cc61)" d="M 54.118318 150.32 
L 58.63384 150.32 
L 58.63384 146.498849 
L 54.118318 146.498849 
z
" style="fill:#00ff00;"/>
   </g>
   <g id="patch_24">
    <path clip-path="url(#pd5fa31cc61)" d="M 71.051528 150.32 
L 75.56705 150.32 
L 75.56705 142.200054 
L 71.051528 142.200054 
z
" style="fill:#00ff00;"/>
   </g>
   <g id="patch_25">
    <path clip-path="url(#pd5fa31cc61)" d="M 87.984737 150.32 
L 92.50026 150.32 
L 92.50026 111.630843 
L 87.984737 111.630843 
z
" style="fill:#00ff00;"/>
   </g>
   <g id="patch_26">
    <path clip-path="url(#pd5fa31cc61)" d="M 104.917947 150.32 
L 109.433469 150.32 
L 109.433469 62.911165 
L 104.917947 62.911165 
z
" style="fill:#00ff00;"/>
   </g>
   <g id="patch_27">
    <path clip-path="url(#pd5fa31cc61)" d="M 121.851156 150.32 
L 126.366679 150.32 
L 126.366679 31.386667 
L 121.851156 31.386667 
z
" style="fill:#00ff00;"/>
   </g>
   <g id="patch_28">
    <path clip-path="url(#pd5fa31cc61)" d="M 138.784366 150.32 
L 143.299889 150.32 
L 143.299889 42.85012 
L 138.784366 42.85012 
z
" style="fill:#00ff00;"/>
   </g>
   <g id="patch_29">
    <path clip-path="url(#pd5fa31cc61)" d="M 155.717576 150.32 
L 160.233098 150.32 
L 160.233098 82.494565 
L 155.717576 82.494565 
z
" style="fill:#00ff00;"/>
   </g>
   <g id="patch_30">
    <path clip-path="url(#pd5fa31cc61)" d="M 172.650785 150.32 
L 177.166308 150.32 
L 177.166308 115.929639 
L 172.650785 115.929639 
z
" style="fill:#00ff00;"/>
   </g>
   <g id="patch_31">
    <path clip-path="url(#pd5fa31cc61)" d="M 189.583995 150.32 
L 194.099518 150.32 
L 194.099518 140.289478 
L 189.583995 140.289478 
z
" style="fill:#00ff00;"/>
   </g>
   <g id="patch_32">
    <path clip-path="url(#pd5fa31cc61)" d="M 206.517205 150.32 
L 211.032727 150.32 
L 211.032727 149.364712 
L 206.517205 149.364712 
z
" style="fill:#00ff00;"/>
   </g>
   <g id="matplotlib.axis_1">
    <g id="xtick_1">
     <g id="line2d_1">
      <defs>
       <path d="M 0 0 
L 0 3.5 
" id="m1922f0946a" style="stroke:#000000;stroke-width:0.8;"/>
      </defs>
      <g>
       <use style="stroke:#000000;stroke-width:0.8;" x="73.471041" xlink:href="#m1922f0946a" y="150.32"/>
      </g>
     </g>
     <g id="text_1">
      <!-- −2 -->
      <defs>
       <path d="M 10.59375 35.5 
L 73.1875 35.5 
L 73.1875 27.203125 
L 10.59375 27.203125 
z
" id="DejaVuSans-8722"/>
       <path d="M 19.1875 8.296875 
L 53.609375 8.296875 
L 53.609375 0 
L 7.328125 0 
L 7.328125 8.296875 
Q 12.9375 14.109375 22.625 23.890625 
Q 32.328125 33.6875 34.8125 36.53125 
Q 39.546875 41.84375 41.421875 45.53125 
Q 43.3125 49.21875 43.3125 52.78125 
Q 43.3125 58.59375 39.234375 62.25 
Q 35.15625 65.921875 28.609375 65.921875 
Q 23.96875 65.921875 18.8125 64.3125 
Q 13.671875 62.703125 7.8125 59.421875 
L 7.8125 69.390625 
Q 13.765625 71.78125 18.9375 73 
Q 24.125 74.21875 28.421875 74.21875 
Q 39.75 74.21875 46.484375 68.546875 
Q 53.21875 62.890625 53.21875 53.421875 
Q 53.21875 48.921875 51.53125 44.890625 
Q 49.859375 40.875 45.40625 35.40625 
Q 44.1875 33.984375 37.640625 27.21875 
Q 31.109375 20.453125 19.1875 8.296875 
z
" id="DejaVuSans-50"/>
      </defs>
      <g transform="translate(66.099948 164.918437)scale(0.1 -0.1)">
       <use xlink:href="#DejaVuSans-8722"/>
       <use x="83.789062" xlink:href="#DejaVuSans-50"/>
      </g>
     </g>
    </g>
    <g id="xtick_2">
     <g id="line2d_2">
      <g>
       <use style="stroke:#000000;stroke-width:0.8;" x="127.331295" xlink:href="#m1922f0946a" y="150.32"/>
      </g>
     </g>
     <g id="text_2">
      <!-- 0 -->
      <defs>
       <path d="M 31.78125 66.40625 
Q 24.171875 66.40625 20.328125 58.90625 
Q 16.5 51.421875 16.5 36.375 
Q 16.5 21.390625 20.328125 13.890625 
Q 24.171875 6.390625 31.78125 6.390625 
Q 39.453125 6.390625 43.28125 13.890625 
Q 47.125 21.390625 47.125 36.375 
Q 47.125 51.421875 43.28125 58.90625 
Q 39.453125 66.40625 31.78125 66.40625 
z
M 31.78125 74.21875 
Q 44.046875 74.21875 50.515625 64.515625 
Q 56.984375 54.828125 56.984375 36.375 
Q 56.984375 17.96875 50.515625 8.265625 
Q 44.046875 -1.421875 31.78125 -1.421875 
Q 19.53125 -1.421875 13.0625 8.265625 
Q 6.59375 17.96875 6.59375 36.375 
Q 6.59375 54.828125 13.0625 64.515625 
Q 19.53125 74.21875 31.78125 74.21875 
z
" id="DejaVuSans-48"/>
      </defs>
      <g transform="translate(124.150045 164.918437)scale(0.1 -0.1)">
       <use xlink:href="#DejaVuSans-48"/>
      </g>
     </g>
    </g>
    <g id="xtick_3">
     <g id="line2d_3">
      <g>
       <use style="stroke:#000000;stroke-width:0.8;" x="181.191549" xlink:href="#m1922f0946a" y="150.32"/>
      </g>
     </g>
     <g id="text_3">
      <!-- 2 -->
      <g transform="translate(178.010299 164.918437)scale(0.1 -0.1)">
       <use xlink:href="#DejaVuSans-50"/>
      </g>
     </g>
    </g>
   </g>
   <g id="matplotlib.axis_2">
    <g id="ytick_1">
     <g id="line2d_4">
      <defs>
       <path d="M 0 0 
L -3.5 0 
" id="mf7fb2fbcc9" style="stroke:#000000;stroke-width:0.8;"/>
      </defs>
      <g>
       <use style="stroke:#000000;stroke-width:0.8;" x="36.79" xlink:href="#mf7fb2fbcc9" y="150.32"/>
      </g>
     </g>
     <g id="text_4">
      <!-- 0.0 -->
      <defs>
       <path d="M 10.6875 12.40625 
L 21 12.40625 
L 21 0 
L 10.6875 0 
z
" id="DejaVuSans-46"/>
      </defs>
      <g transform="translate(13.886875 154.119219)scale(0.1 -0.1)">
       <use xlink:href="#DejaVuSans-48"/>
       <use x="63.623047" xlink:href="#DejaVuSans-46"/>
       <use x="95.410156" xlink:href="#DejaVuSans-48"/>
      </g>
     </g>
    </g>
    <g id="ytick_2">
     <g id="line2d_5">
      <g>
       <use style="stroke:#000000;stroke-width:0.8;" x="36.79" xlink:href="#mf7fb2fbcc9" y="120.286556"/>
      </g>
     </g>
     <g id="text_5">
      <!-- 0.1 -->
      <defs>
       <path d="M 12.40625 8.296875 
L 28.515625 8.296875 
L 28.515625 63.921875 
L 10.984375 60.40625 
L 10.984375 69.390625 
L 28.421875 72.90625 
L 38.28125 72.90625 
L 38.28125 8.296875 
L 54.390625 8.296875 
L 54.390625 0 
L 12.40625 0 
z
" id="DejaVuSans-49"/>
      </defs>
      <g transform="translate(13.886875 124.085775)scale(0.1 -0.1)">
       <use xlink:href="#DejaVuSans-48"/>
       <use x="63.623047" xlink:href="#DejaVuSans-46"/>
       <use x="95.410156" xlink:href="#DejaVuSans-49"/>
      </g>
     </g>
    </g>
    <g id="ytick_3">
     <g id="line2d_6">
      <g>
       <use style="stroke:#000000;stroke-width:0.8;" x="36.79" xlink:href="#mf7fb2fbcc9" y="90.253113"/>
      </g>
     </g>
     <g id="text_6">
      <!-- 0.2 -->
      <g transform="translate(13.886875 94.052332)scale(0.1 -0.1)">
       <use xlink:href="#DejaVuSans-48"/>
       <use x="63.623047" xlink:href="#DejaVuSans-46"/>
       <use x="95.410156" xlink:href="#DejaVuSans-50"/>
      </g>
     </g>
    </g>
    <g id="ytick_4">
     <g id="line2d_7">
      <g>
       <use style="stroke:#000000;stroke-width:0.8;" x="36.79" xlink:href="#mf7fb2fbcc9" y="60.219669"/>
      </g>
     </g>
     <g id="text_7">
      <!-- 0.3 -->
      <defs>
       <path d="M 40.578125 39.3125 
Q 47.65625 37.796875 51.625 33 
Q 55.609375 28.21875 55.609375 21.1875 
Q 55.609375 10.40625 48.1875 4.484375 
Q 40.765625 -1.421875 27.09375 -1.421875 
Q 22.515625 -1.421875 17.65625 -0.515625 
Q 12.796875 0.390625 7.625 2.203125 
L 7.625 11.71875 
Q 11.71875 9.328125 16.59375 8.109375 
Q 21.484375 6.890625 26.8125 6.890625 
Q 36.078125 6.890625 40.9375 10.546875 
Q 45.796875 14.203125 45.796875 21.1875 
Q 45.796875 27.640625 41.28125 31.265625 
Q 36.765625 34.90625 28.71875 34.90625 
L 20.21875 34.90625 
L 20.21875 43.015625 
L 29.109375 43.015625 
Q 36.375 43.015625 40.234375 45.921875 
Q 44.09375 48.828125 44.09375 54.296875 
Q 44.09375 59.90625 40.109375 62.90625 
Q 36.140625 65.921875 28.71875 65.921875 
Q 24.65625 65.921875 20.015625 65.03125 
Q 15.375 64.15625 9.8125 62.3125 
L 9.8125 71.09375 
Q 15.4375 72.65625 20.34375 73.4375 
Q 25.25 74.21875 29.59375 74.21875 
Q 40.828125 74.21875 47.359375 69.109375 
Q 53.90625 64.015625 53.90625 55.328125 
Q 53.90625 49.265625 50.4375 45.09375 
Q 46.96875 40.921875 40.578125 39.3125 
z
" id="DejaVuSans-51"/>
      </defs>
      <g transform="translate(13.886875 64.018888)scale(0.1 -0.1)">
       <use xlink:href="#DejaVuSans-48"/>
       <use x="63.623047" xlink:href="#DejaVuSans-46"/>
       <use x="95.410156" xlink:href="#DejaVuSans-51"/>
      </g>
     </g>
    </g>
    <g id="ytick_5">
     <g id="line2d_8">
      <g>
       <use style="stroke:#000000;stroke-width:0.8;" x="36.79" xlink:href="#mf7fb2fbcc9" y="30.186226"/>
      </g>
     </g>
     <g id="text_8">
      <!-- 0.4 -->
      <defs>
       <path d="M 37.796875 64.3125 
L 12.890625 25.390625 
L 37.796875 25.390625 
z
M 35.203125 72.90625 
L 47.609375 72.90625 
L 47.609375 25.390625 
L 58.015625 25.390625 
L 58.015625 17.1875 
L 47.609375 17.1875 
L 47.609375 0 
L 37.796875 0 
L 37.796875 17.1875 
L 4.890625 17.1875 
L 4.890625 26.703125 
z
" id="DejaVuSans-52"/>
      </defs>
      <g transform="translate(13.886875 33.985445)scale(0.1 -0.1)">
       <use xlink:href="#DejaVuSans-48"/>
       <use x="63.623047" xlink:href="#DejaVuSans-46"/>
       <use x="95.410156" xlink:href="#DejaVuSans-52"/>
      </g>
     </g>
    </g>
   </g>
   <g id="patch_33">
    <path d="M 36.79 150.32 
L 36.79 25.44 
" style="fill:none;stroke:#000000;stroke-linecap:square;stroke-linejoin:miter;stroke-width:0.8;"/>
   </g>
   <g id="patch_34">
    <path d="M 219.33 150.32 
L 219.33 25.44 
" style="fill:none;stroke:#000000;stroke-linecap:square;stroke-linejoin:miter;stroke-width:0.8;"/>
   </g>
   <g id="patch_35">
    <path d="M 36.79 150.32 
L 219.33 150.32 
" style="fill:none;stroke:#000000;stroke-linecap:square;stroke-linejoin:miter;stroke-width:0.8;"/>
   </g>
   <g id="patch_36">
    <path d="M 36.79 25.44 
L 219.33 25.44 
" style="fill:none;stroke:#000000;stroke-linecap:square;stroke-linejoin:miter;stroke-width:0.8;"/>
   </g>
   <g id="text_9">
    <!-- bars with legend -->
    <defs>
     <path d="M 48.6875 27.296875 
Q 48.6875 37.203125 44.609375 42.84375 
Q 40.53125 48.484375 33.40625 48.484375 
Q 26.265625 48.484375 22.1875 42.84375 
Q 18.109375 37.203125 18.109375 27.296875 
Q 18.109375 17.390625 22.1875 11.75 
Q 26.265625 6.109375 33.40625 6.109375 
Q 40.53125 6.109375 44.609375 11.75 
Q 48.6875 17.390625 48.6875 27.296875 
z
M 18.109375 46.390625 
Q 20.953125 51.265625 25.265625 53.625 
Q 29.59375 56 35.59375 56 
Q 45.5625 56 51.78125 48.09375 
Q 58.015625 40.1875 58.015625 27.296875 
Q 58.015625 14.40625 51.78125 6.484375 
Q 45.5625 -1.421875 35.59375 -1.421875 
Q 29.59375 -1.421875 25.265625 0.953125 
Q 20.953125 3.328125 18.109375 8.203125 
L 18.109375 0 
L 9.078125 0 
L 9.078125 75.984375 
L 18.109375 75.984375 
z
" id="DejaVuSans-98"/>
     <path d="M 34.28125 27.484375 
Q 23.390625 27.484375 19.1875 25 
Q 14.984375 22.515625 14.984375 16.5 
Q 14.984375 11.71875 18.140625 8.90625 
Q 21.296875 6.109375 26.703125 6.109375 
Q 34.1875 6.109375 38.703125 11.40625 
Q 43.21875 16.703125 43.21875 25.484375 
L 43.21875 27.484375 
z
M 52.203125 31.203125 
L 52.203125 0 
L 43.21875 0 
L 43.21875 8.296875 
Q 40.140625 3.328125 35.546875 0.953125 
Q 30.953125 -1.421875 24.3125 -1.421875 
Q 15.921875 -1.421875 10.953125 3.296875 
Q 6 8.015625 6 15.921875 
Q 6 25.140625 12.171875 29.828125 
Q 18.359375 34.515625 30.609375 34.515625 
L 43.21875 34.515625 
L 43.21875 35.40625 
Q 43.21875 41.609375 39.140625 45 
Q 35.0625 48.390625 27.6875 48.390625 
Q 23 48.390625 18.546875 47.265625 
Q 14.109375 46.140625 10.015625 43.890625 
L 10.015625 52.203125 
Q 14.9375 54.109375 19.578125 55.046875 
Q 24.21875 56 28.609375 56 
Q 40.484375 56 46.34375 49.84375 
Q 52.203125 43.703125 52.203125 31.203125 
z
" id="DejaVuSans-97"/>
     <path d="M 41.109375 46.296875 
Q 39.59375 47.171875 37.8125 47.578125 
Q 36.03125 48 33.890625 48 
Q 26.265625 48 22.1875 43.046875 
Q 18.109375 38.09375 18.109375 28.8125 
L 18.109375 0 
L 9.078125 0 
L 9.078125 54.6875 
L 18.109375 54.6875 
L 18.109375 46.1875 
Q 20.953125 51.171875 25.484375 53.578125 
Q 30.03125 56 36.53125 56 
Q 37.453125 56 38.578125 55.875 
Q 39.703125 55.765625 41.0625 55.515625 
z
" id="DejaVuSans-114"/>
     <path d="M 44.28125 53.078125 
L 44.28125 44.578125 
Q 40.484375 46.53125 36.375 47.5 
Q 32.28125 48.484375 27.875 48.484375 
Q 21.1875 48.484375 17.84375 46.4375 
Q 14.5 44.390625 14.5 40.28125 
Q 14.5 37.15625 16.890625 35.375 
Q 19.28125 33.59375 26.515625 31.984375 
L 29.59375 31.296875 
Q 39.15625 29.25 43.1875 25.515625 
Q 47.21875 21.78125 47.21875 15.09375 
Q 47.21875 7.46875 41.1875 3.015625 
Q 35.15625 -1.421875 24.609375 -1.421875 
Q 20.21875 -1.421875 15.453125 -0.5625 
Q 10.6875 0.296875 5.421875 2 
L 5.421875 11.28125 
Q 10.40625 8.6875 15.234375 7.390625 
Q 20.0625 6.109375 24.8125 6.109375 
Q 31.15625 6.109375 34.5625 8.28125 
Q 37.984375 10.453125 37.984375 14.40625 
Q 37.984375 18.0625 35.515625 20.015625 
Q 33.0625 21.96875 24.703125 23.78125 
L 21.578125 24.515625 
Q 13.234375 26.265625 9.515625 29.90625 
Q 5.8125 33.546875 5.8125 39.890625 
Q 5.8125 47.609375 11.28125 51.796875 
Q 16.75 56 26.8125 56 
Q 31.78125 56 36.171875 55.265625 
Q 40.578125 54.546875 44.28125 53.078125 
z
" id="DejaVuSans-115"/>
     <path id="DejaVuSans-32"/>
     <path d="M 4.203125 54.6875 
L 13.1875 54.6875 
L 24.421875 12.015625 
L 35.59375 54.6875 
L 46.1875 54.6875 
L 57.421875 12.015625 
L 68.609375 54.6875 
L 77.59375 54.6875 
L 63.28125 0 
L 52.6875 0 
L 40.921875 44.828125 
L 29.109375 0 
L 18.5 0 
z
" id="DejaVuSans-119"/>
     <path d="M 9.421875 54.6875 
L 18.40625 54.6875 
L 18.40625 0 
L 9.421875 0 
z
M 9.421875 75.984375 
L 18.40625 75.984375 
L 18.40625 64.59375 
L 9.421875 64.59375 
z
" id="DejaVuSans-105"/>
     <path d="M 18.3125 70.21875 
L 18.3125 54.6875 
L 36.8125 54.6875 
L 36.8125 47.703125 
L 18.3125 47.703125 
L 18.3125 18.015625 
Q 18.3125 11.328125 20.140625 9.421875 
Q 21.96875 7.515625 27.59375 7.515625 
L 36.8125 7.515625 
L 36.8125 0 
L 27.59375 0 
Q 17.1875 0 13.234375 3.875 
Q 9.28125 7.765625 9.28125 18.015625 
L 9.28125 47.703125 
L 2.6875 47.703125 
L 2.6875 54.6875 
L 9.28125 54.6875 
L 9.28125 70.21875 
z
" id="DejaVuSans-116"/>
     <path d="M 54.890625 33.015625 
L 54.890625 0 
L 45.90625 0 
L 45.90625 32.71875 
Q 45.90625 40.484375 42.875 44.328125 
Q 39.84375 48.1875 33.796875 48.1875 
Q 26.515625 48.1875 22.3125 43.546875 
Q 18.109375 38.921875 18.109375 30.90625 
L 18.109375 0 
L 9.078125 0 
L 9.078125 75.984375 
L 18.109375 75.984375 
L 18.109375 46.1875 
Q 21.34375 51.125 25.703125 53.5625 
Q 30.078125 56 35.796875 56 
Q 45.21875 56 50.046875 50.171875 
Q 54.890625 44.34375 54.890625 33.015625 
z
" id="DejaVuSans-104"/>
     <path d="M 9.421875 75.984375 
L 18.40625 75.984375 
L 18.40625 0 
L 9.421875 0 
z
" id="DejaVuSans-108"/>
     <path d="M 56.203125 29.59375 
L 56.203125 25.203125 
L 14.890625 25.203125 
Q 15.484375 15.921875 20.484375 11.0625 
Q 25.484375 6.203125 34.421875 6.203125 
Q 39.59375 6.203125 44.453125 7.46875 
Q 49.3125 8.734375 54.109375 11.28125 
L 54.109375 2.78125 
Q 49.265625 0.734375 44.1875 -0.34375 
Q 39.109375 -1.421875 33.890625 -1.421875 
Q 20.796875 -1.421875 13.15625 6.1875 
Q 5.515625 13.8125 5.515625 26.8125 
Q 5.515625 40.234375 12.765625 48.109375 
Q 20.015625 56 32.328125 56 
Q 43.359375 56 49.78125 48.890625 
Q 56.203125 41.796875 56.203125 29.59375 
z
M 47.21875 32.234375 
Q 47.125 39.59375 43.09375 43.984375 
Q 39.0625 48.390625 32.421875 48.390625 
Q 24.90625 48.390625 20.390625 44.140625 
Q 15.875 39.890625 15.1875 32.171875 
z
" id="DejaVuSans-101"/>
     <path d="M 45.40625 27.984375 
Q 45.40625 37.75 41.375 43.109375 
Q 37.359375 48.484375 30.078125 48.484375 
Q 22.859375 48.484375 18.828125 43.109375 
Q 14.796875 37.75 14.796875 27.984375 
Q 14.796875 18.265625 18.828125 12.890625 
Q 22.859375 7.515625 30.078125 7.515625 
Q 37.359375 7.515625 41.375 12.890625 
Q 45.40625 18.265625 45.40625 27.984375 
z
M 54.390625 6.78125 
Q 54.390625 -7.171875 48.1875 -13.984375 
Q 42 -20.796875 29.203125 -20.796875 
Q 24.46875 -20.796875 20.265625 -20.09375 
Q 16.0625 -19.390625 12.109375 -17.921875 
L 12.109375 -9.1875 
Q 16.0625 -11.328125 19.921875 -12.34375 
Q 23.78125 -13.375 27.78125 -13.375 
Q 36.625 -13.375 41.015625 -8.765625 
Q 45.40625 -4.15625 45.40625 5.171875 
L 45.40625 9.625 
Q 42.625 4.78125 38.28125 2.390625 
Q 33.9375 0 27.875 0 
Q 17.828125 0 11.671875 7.65625 
Q 5.515625 15.328125 5.515625 27.984375 
Q 5.515625 40.671875 11.671875 48.328125 
Q 17.828125 56 27.875 56 
Q 33.9375 56 38.28125 53.609375 
Q 42.625 51.21875 45.40625 46.390625 
L 45.40625 54.6875 
L 54.390625 54.6875 
z
" id="DejaVuSans-103"/>
     <path d="M 54.890625 33.015625 
L 54.890625 0 
L 45.90625 0 
L 45.90625 32.71875 
Q 45.90625 40.484375 42.875 44.328125 
Q 39.84375 48.1875 33.796875 48.1875 
Q 26.515625 48.1875 22.3125 43.546875 
Q 18.109375 38.921875 18.109375 30.90625 
L 18.109375 0 
L 9.078125 0 
L 9.078125 54.6875 
L 18.109375 54.6875 
L 18.109375 46.1875 
Q 21.34375 51.125 25.703125 53.5625 
Q 30.078125 56 35.796875 56 
Q 45.21875 56 50.046875 50.171875 
Q 54.890625 44.34375 54.890625 33.015625 
z
" id="DejaVuSans-110"/>
     <path d="M 45.40625 46.390625 
L 45.40625 75.984375 
L 54.390625 75.984375 
L 54.390625 0 
L 45.40625 0 
L 45.40625 8.203125 
Q 42.578125 3.328125 38.25 0.953125 
Q 33.9375 -1.421875 27.875 -1.421875 
Q 17.96875 -1.421875 11.734375 6.484375 
Q 5.515625 14.40625 5.515625 27.296875 
Q 5.515625 40.1875 11.734375 48.09375 
Q 17.96875 56 27.875 56 
Q 33.9375 56 38.25 53.625 
Q 42.578125 51.265625 45.40625 46.390625 
z
M 14.796875 27.296875 
Q 14.796875 17.390625 18.875 11.75 
Q 22.953125 6.109375 30.078125 6.109375 
Q 37.203125 6.109375 41.296875 11.75 
Q 45.40625 17.390625 45.40625 27.296875 
Q 45.40625 37.203125 41.296875 42.84375 
Q 37.203125 48.484375 30.078125 48.484375 
Q 22.953125 48.484375 18.875 42.84375 
Q 14.796875 37.203125 14.796875 27.296875 
z
" id="DejaVuSans-100"/>
    </defs>
    <g transform="translate(77.968438 19.44)scale(0.12 -0.12)">
     <use xlink:href="#DejaVuSans-98"/>
     <use x="63.476562" xlink:href="#DejaVuSans-97"/>
     <use x="124.755859" xlink:href="#DejaVuSans-114"/>
     <use x="165.869141" xlink:href="#DejaVuSans-115"/>
     <use x="217.96875" xlink:href="#DejaVuSans-32"/>
     <use x="249.755859" xlink:href="#DejaVuSans-119"/>
     <use x="331.542969" xlink:href="#DejaVuSans-105"/>
     <use x="359.326172" xlink:href="#DejaVuSans-116"/>
     <use x="398.535156" xlink:href="#DejaVuSans-104"/>
     <use x="461.914062" xlink:href="#DejaVuSans-32"/>
     <use x="493.701172" xlink:href="#DejaVuSans-108"/>
     <use x="521.484375" xlink:href="#DejaVuSans-101"/>
     <use x="583.007812" xlink:href="#DejaVuSans-103"/>
     <use x="646.484375" xlink:href="#DejaVuSans-101"/>
     <use x="708.007812" xlink:href="#DejaVuSans-110"/>
     <use x="771.386719" xlink:href="#DejaVuSans-100"/>
    </g>
   </g>
   <g id="legend_1">
    <g id="patch_37">
     <path d="M 158.88 77.474375 
L 212.33 77.474375 
Q 214.33 77.474375 214.33 75.474375 
L 214.33 32.44 
Q 214.33 30.44 212.33 30.44 
L 158.88 30.44 
Q 156.88 30.44 156.88 32.44 
L 156.88 75.474375 
Q 156.88 77.474375 158.88 77.474375 
z
" style="fill:#ffffff;opacity:0.8;stroke:#cccccc;stroke-linejoin:miter;"/>
    </g>
    <g id="patch_38">
     <path d="M 160.88 42.038437 
L 180.88 42.038437 
L 180.88 35.038437 
L 160.88 35.038437 
z
" style="fill:#ff0000;"/>
    </g>
    <g id="text_10">
     <!-- red -->
     <g transform="translate(188.88 42.038437)scale(0.1 -0.1)">
      <use xlink:href="#DejaVuSans-114"/>
      <use x="41.082031" xlink:href="#DejaVuSans-101"/>
      <use x="102.605469" xlink:href="#DejaVuSans-100"/>
     </g>
    </g>
    <g id="patch_39">
     <path d="M 160.88 56.716563 
L 180.88 56.716563 
L 180.88 49.716563 
L 160.88 49.716563 
z
" style="fill:#d2b48c;"/>
    </g>
    <g id="text_11">
     <!-- tan -->
     <g transform="translate(188.88 56.716563)scale(0.1 -0.1)">
      <use xlink:href="#DejaVuSans-116"/>
      <use x="39.208984" xlink:href="#DejaVuSans-97"/>
      <use x="100.488281" xlink:href="#DejaVuSans-110"/>
     </g>
    </g>
    <g id="patch_40">
     <path d="M 160.88 71.394687 
L 180.88 71.394687 
L 180.88 64.394687 
L 160.88 64.394687 
z
" style="fill:#00ff00;"/>
    </g>
    <g id="text_12">
     <!-- lime -->
     <defs>
      <path d="M 52 44.1875 
Q 55.375 50.25 60.0625 53.125 
Q 64.75 56 71.09375 56 
Q 79.640625 56 84.28125 50.015625 
Q 88.921875 44.046875 88.921875 33.015625 
L 88.921875 0 
L 79.890625 0 
L 79.890625 32.71875 
Q 79.890625 40.578125 77.09375 44.375 
Q 74.3125 48.1875 68.609375 48.1875 
Q 61.625 48.1875 57.5625 43.546875 
Q 53.515625 38.921875 53.515625 30.90625 
L 53.515625 0 
L 44.484375 0 
L 44.484375 32.71875 
Q 44.484375 40.625 41.703125 44.40625 
Q 38.921875 48.1875 33.109375 48.1875 
Q 26.21875 48.1875 22.15625 43.53125 
Q 18.109375 38.875 18.109375 30.90625 
L 18.109375 0 
L 9.078125 0 
L 9.078125 54.6875 
L 18.109375 54.6875 
L 18.109375 46.1875 
Q 21.1875 51.21875 25.484375 53.609375 
Q 29.78125 56 35.6875 56 
Q 41.65625 56 45.828125 52.96875 
Q 50 49.953125 52 44.1875 
z
" id="DejaVuSans-109"/>
     </defs>
     <g transform="translate(188.88 71.394687)scale(0.1 -0.1)">
      <use xlink:href="#DejaVuSans-108"/>
      <use x="27.783203" xlink:href="#DejaVuSans-105"/>
      <use x="55.566406" xlink:href="#DejaVuSans-109"/>
      <use x="152.978516" xlink:href="#DejaVuSans-101"/>
     </g>
    </g>
   </g>
  </g>
  <g id="axes_2">
   <g id="patch_41">
    <path d="M 264.94 150.32 
L 447.48 150.32 
L 447.48 25.44 
L 264.94 25.44 
z
" style="fill:#ffffff;"/>
   </g>
   <g id="patch_42">
    <path clip-path="url(#pd28e9b401a)" d="M 273.237273 150.32 
L 289.831818 150.32 
L 289.831818 149.995046 
L 273.237273 149.995046 
z
" style="fill:#1f77b4;"/>
   </g>
   <g id="patch_43">
    <path clip-path="url(#pd28e9b401a)" d="M 289.831818 150.32 
L 306.426364 150.32 
L 306.426364 146.583024 
L 289.831818 146.583024 
z
" style="fill:#1f77b4;"/>
   </g>
   <g id="patch_44">
    <path clip-path="url(#pd28e9b401a)" d="M 306.426364 150.32 
L 323.020909 150.32 
L 323.020909 138.134208 
L 306.426364 138.134208 
z
" style="fill:#1f77b4;"/>
   </g>
   <g id="patch_45">
    <path clip-path="url(#pd28e9b401a)" d="M 323.020909 150.32 
L 339.615455 150.32 
L 339.615455 123.186302 
L 323.020909 123.186302 
z
" style="fill:#1f77b4;"/>
   </g>
   <g id="patch_46">
    <path clip-path="url(#pd28e9b401a)" d="M 339.615455 150.32 
L 356.21 150.32 
L 356.21 111.487942 
L 339.615455 111.487942 
z
" style="fill:#1f77b4;"/>
   </g>
   <g id="patch_47">
    <path clip-path="url(#pd28e9b401a)" d="M 356.21 150.32 
L 372.804545 150.32 
L 372.804545 111.00051 
L 356.21 111.00051 
z
" style="fill:#1f77b4;"/>
   </g>
   <g id="patch_48">
    <path clip-path="url(#pd28e9b401a)" d="M 372.804545 150.32 
L 389.399091 150.32 
L 389.399091 124.161166 
L 372.804545 124.161166 
z
" style="fill:#1f77b4;"/>
   </g>
   <g id="patch_49">
    <path clip-path="url(#pd28e9b401a)" d="M 389.399091 150.32 
L 405.993636 150.32 
L 405.993636 139.596503 
L 389.399091 139.596503 
z
" style="fill:#1f77b4;"/>
   </g>
   <g id="patch_50">
    <path clip-path="url(#pd28e9b401a)" d="M 405.993636 150.32 
L 422.588182 150.32 
L 422.588182 146.420546 
L 405.993636 146.420546 
z
" style="fill:#1f77b4;"/>
   </g>
   <g id="patch_51">
    <path clip-path="url(#pd28e9b401a)" d="M 422.588182 150.32 
L 439.182727 150.32 
L 439.182727 150.157523 
L 422.588182 150.157523 
z
" style="fill:#1f77b4;"/>
   </g>
   <g id="patch_52">
    <path clip-path="url(#pd28e9b401a)" d="M 273.237273 149.995046 
L 289.831818 149.995046 
L 289.831818 148.53275 
L 273.237273 148.53275 
z
" style="fill:#ff7f0e;"/>
   </g>
   <g id="patch_53">
    <path clip-path="url(#pd28e9b401a)" d="M 289.831818 146.583024 
L 306.426364 146.583024 
L 306.426364 143.658434 
L 289.831818 143.658434 
z
" style="fill:#ff7f0e;"/>
   </g>
   <g id="patch_54">
    <path clip-path="url(#pd28e9b401a)" d="M 306.426364 138.134208 
L 323.020909 138.134208 
L 323.020909 123.998689 
L 306.426364 123.998689 
z
" style="fill:#ff7f0e;"/>
   </g>
   <g id="patch_55">
    <path clip-path="url(#pd28e9b401a)" d="M 323.020909 123.186302 
L 339.615455 123.186302 
L 339.615455 95.72765 
L 323.020909 95.72765 
z
" style="fill:#ff7f0e;"/>
   </g>
   <g id="patch_56">
    <path clip-path="url(#pd28e9b401a)" d="M 339.615455 111.487942 
L 356.21 111.487942 
L 356.21 71.843497 
L 339.615455 71.843497 
z
" style="fill:#ff7f0e;"/>
   </g>
   <g id="patch_57">
    <path clip-path="url(#pd28e9b401a)" d="M 356.21 111.00051 
L 372.804545 111.00051 
L 372.804545 71.843497 
L 356.21 71.843497 
z
" style="fill:#ff7f0e;"/>
   </g>
   <g id="patch_58">
    <path clip-path="url(#pd28e9b401a)" d="M 372.804545 124.161166 
L 389.399091 124.161166 
L 389.399091 101.739308 
L 372.804545 101.739308 
z
" style="fill:#ff7f0e;"/>
   </g>
   <g id="patch_59">
    <path clip-path="url(#pd28e9b401a)" d="M 389.399091 139.596503 
L 405.993636 139.596503 
L 405.993636 128.223097 
L 389.399091 128.223097 
z
" style="fill:#ff7f0e;"/>
   </g>
   <g id="patch_60">
    <path clip-path="url(#pd28e9b401a)" d="M 405.993636 146.420546 
L 422.588182 146.420546 
L 422.588182 143.333479 
L 405.993636 143.333479 
z
" style="fill:#ff7f0e;"/>
   </g>
   <g id="patch_61">
    <path clip-path="url(#pd28e9b401a)" d="M 422.588182 150.157523 
L 439.182727 150.157523 
L 439.182727 149.345137 
L 422.588182 149.345137 
z
" style="fill:#ff7f0e;"/>
   </g>
   <g id="patch_62">
    <path clip-path="url(#pd28e9b401a)" d="M 273.237273 148.53275 
L 289.831818 148.53275 
L 289.831818 147.232933 
L 273.237273 147.232933 
z
" style="fill:#2ca02c;"/>
   </g>
   <g id="patch_63">
    <path clip-path="url(#pd28e9b401a)" d="M 289.831818 143.658434 
L 306.426364 143.658434 
L 306.426364 140.896321 
L 289.831818 140.896321 
z
" style="fill:#2ca02c;"/>
   </g>
   <g id="patch_64">
    <path clip-path="url(#pd28e9b401a)" d="M 306.426364 123.998689 
L 323.020909 123.998689 
L 323.020909 110.838033 
L 306.426364 110.838033 
z
" style="fill:#2ca02c;"/>
   </g>
   <g id="patch_65">
    <path clip-path="url(#pd28e9b401a)" d="M 323.020909 95.72765 
L 339.615455 95.72765 
L 339.615455 65.994317 
L 323.020909 65.994317 
z
" style="fill:#2ca02c;"/>
   </g>
   <g id="patch_66">
    <path clip-path="url(#pd28e9b401a)" d="M 339.615455 71.843497 
L 356.21 71.843497 
L 356.21 31.386667 
L 339.615455 31.386667 
z
" style="fill:#2ca02c;"/>
   </g>
   <g id="patch_67">
    <path clip-path="url(#pd28e9b401a)" d="M 356.21 71.843497 
L 372.804545 71.843497 
L 372.804545 35.28612 
L 356.21 35.28612 
z
" style="fill:#2ca02c;"/>
   </g>
   <g id="patch_68">
    <path clip-path="url(#pd28e9b401a)" d="M 372.804545 101.739308 
L 389.399091 101.739308 
L 389.399091 78.667541 
L 372.804545 78.667541 
z
" style="fill:#2ca02c;"/>
   </g>
   <g id="patch_69">
    <path clip-path="url(#pd28e9b401a)" d="M 389.399091 128.223097 
L 405.993636 128.223097 
L 405.993636 116.524736 
L 389.399091 116.524736 
z
" style="fill:#2ca02c;"/>
   </g>
   <g id="patch_70">
    <path clip-path="url(#pd28e9b401a)" d="M 405.993636 143.333479 
L 422.588182 143.333479 
L 422.588182 139.921457 
L 405.993636 139.921457 
z
" style="fill:#2ca02c;"/>
   </g>
   <g id="patch_71">
    <path clip-path="url(#pd28e9b401a)" d="M 422.588182 149.345137 
L 439.182727 149.345137 
L 439.182727 149.020182 
L 422.588182 149.020182 
z
" style="fill:#2ca02c;"/>
   </g>
   <g id="matplotlib.axis_3">
    <g id="xtick_4">
     <g id="line2d_9">
      <g>
       <use style="stroke:#000000;stroke-width:0.8;" x="302.712821" xlink:href="#m1922f0946a" y="150.32"/>
      </g>
     </g>
     <g id="text_13">
      <!-- −2 -->
      <g transform="translate(295.341727 164.918437)scale(0.1 -0.1)">
       <use xlink:href="#DejaVuSans-8722"/>
       <use x="83.789062" xlink:href="#DejaVuSans-50"/>
      </g>
     </g>
    </g>
    <g id="xtick_5">
     <g id="line2d_10">
      <g>
       <use style="stroke:#000000;stroke-width:0.8;" x="355.495869" xlink:href="#m1922f0946a" y="150.32"/>
      </g>
     </g>
     <g id="text_14">
      <!-- 0 -->
      <g transform="translate(352.314619 164.918437)scale(0.1 -0.1)">
       <use xlink:href="#DejaVuSans-48"/>
      </g>
     </g>
    </g>
    <g id="xtick_6">
     <g id="line2d_11">
      <g>
       <use style="stroke:#000000;stroke-width:0.8;" x="408.278918" xlink:href="#m1922f0946a" y="150.32"/>
      </g>
     </g>
     <g id="text_15">
      <!-- 2 -->
      <g transform="translate(405.097668 164.918437)scale(0.1 -0.1)">
       <use xlink:href="#DejaVuSans-50"/>
      </g>
     </g>
    </g>
   </g>
   <g id="matplotlib.axis_4">
    <g id="ytick_6">
     <g id="line2d_12">
      <g>
       <use style="stroke:#000000;stroke-width:0.8;" x="264.94" xlink:href="#mf7fb2fbcc9" y="150.32"/>
      </g>
     </g>
     <g id="text_16">
      <!-- 0.0 -->
      <g transform="translate(242.036875 154.119219)scale(0.1 -0.1)">
       <use xlink:href="#DejaVuSans-48"/>
       <use x="63.623047" xlink:href="#DejaVuSans-46"/>
       <use x="95.410156" xlink:href="#DejaVuSans-48"/>
      </g>
     </g>
    </g>
    <g id="ytick_7">
     <g id="line2d_13">
      <g>
       <use style="stroke:#000000;stroke-width:0.8;" x="264.94" xlink:href="#mf7fb2fbcc9" y="119.671117"/>
      </g>
     </g>
     <g id="text_17">
      <!-- 0.1 -->
      <g transform="translate(242.036875 123.470336)scale(0.1 -0.1)">
       <use xlink:href="#DejaVuSans-48"/>
       <use x="63.623047" xlink:href="#DejaVuSans-46"/>
       <use x="95.410156" xlink:href="#DejaVuSans-49"/>
      </g>
     </g>
    </g>
    <g id="ytick_8">
     <g id="line2d_14">
      <g>
       <use style="stroke:#000000;stroke-width:0.8;" x="264.94" xlink:href="#mf7fb2fbcc9" y="89.022234"/>
      </g>
     </g>
     <g id="text_18">
      <!-- 0.2 -->
      <g transform="translate(242.036875 92.821453)scale(0.1 -0.1)">
       <use xlink:href="#DejaVuSans-48"/>
       <use x="63.623047" xlink:href="#DejaVuSans-46"/>
       <use x="95.410156" xlink:href="#DejaVuSans-50"/>
      </g>
     </g>
    </g>
    <g id="ytick_9">
     <g id="line2d_15">
      <g>
       <use style="stroke:#000000;stroke-width:0.8;" x="264.94" xlink:href="#mf7fb2fbcc9" y="58.373351"/>
      </g>
     </g>
     <g id="text_19">
      <!-- 0.3 -->
      <g transform="translate(242.036875 62.17257)scale(0.1 -0.1)">
       <use xlink:href="#DejaVuSans-48"/>
       <use x="63.623047" xlink:href="#DejaVuSans-46"/>
       <use x="95.410156" xlink:href="#DejaVuSans-51"/>
      </g>
     </g>
    </g>
    <g id="ytick_10">
     <g id="line2d_16">
      <g>
       <use style="stroke:#000000;stroke-width:0.8;" x="264.94" xlink:href="#mf7fb2fbcc9" y="27.724468"/>
      </g>
     </g>
     <g id="text_20">
      <!-- 0.4 -->
      <g transform="translate(242.036875 31.523687)scale(0.1 -0.1)">
       <use xlink:href="#DejaVuSans-48"/>
       <use x="63.623047" xlink:href="#DejaVuSans-46"/>
       <use x="95.410156" xlink:href="#DejaVuSans-52"/>
      </g>
     </g>
    </g>
   </g>
   <g id="patch_72">
    <path d="M 264.94 150.32 
L 264.94 25.44 
" style="fill:none;stroke:#000000;stroke-linecap:square;stroke-linejoin:miter;stroke-width:0.8;"/>
   </g>
   <g id="patch_73">
    <path d="M 447.48 150.32 
L 447.48 25.44 
" style="fill:none;stroke:#000000;stroke-linecap:square;stroke-linejoin:miter;stroke-width:0.8;"/>
   </g>
   <g id="patch_74">
    <path d="M 264.94 150.32 
L 447.48 150.32 
" style="fill:none;stroke:#000000;stroke-linecap:square;stroke-linejoin:miter;stroke-width:0.8;"/>
   </g>
   <g id="patch_75">
    <path d="M 264.94 25.44 
L 447.48 25.44 
" style="fill:none;stroke:#000000;stroke-linecap:square;stroke-linejoin:miter;stroke-width:0.8;"/>
   </g>
   <g id="text_21">
    <!-- stacked bar -->
    <defs>
     <path d="M 48.78125 52.59375 
L 48.78125 44.1875 
Q 44.96875 46.296875 41.140625 47.34375 
Q 37.3125 48.390625 33.40625 48.390625 
Q 24.65625 48.390625 19.8125 42.84375 
Q 14.984375 37.3125 14.984375 27.296875 
Q 14.984375 17.28125 19.8125 11.734375 
Q 24.65625 6.203125 33.40625 6.203125 
Q 37.3125 6.203125 41.140625 7.25 
Q 44.96875 8.296875 48.78125 10.40625 
L 48.78125 2.09375 
Q 45.015625 0.34375 40.984375 -0.53125 
Q 36.96875 -1.421875 32.421875 -1.421875 
Q 20.0625 -1.421875 12.78125 6.34375 
Q 5.515625 14.109375 5.515625 27.296875 
Q 5.515625 40.671875 12.859375 48.328125 
Q 20.21875 56 33.015625 56 
Q 37.15625 56 41.109375 55.140625 
Q 45.0625 54.296875 48.78125 52.59375 
z
" id="DejaVuSans-99"/>
     <path d="M 9.078125 75.984375 
L 18.109375 75.984375 
L 18.109375 31.109375 
L 44.921875 54.6875 
L 56.390625 54.6875 
L 27.390625 29.109375 
L 57.625 0 
L 45.90625 0 
L 18.109375 26.703125 
L 18.109375 0 
L 9.078125 0 
z
" id="DejaVuSans-107"/>
    </defs>
    <g transform="translate(320.924375 19.44)scale(0.12 -0.12)">
     <use xlink:href="#DejaVuSans-115"/>
     <use x="52.099609" xlink:href="#DejaVuSans-116"/>
     <use x="91.308594" xlink:href="#DejaVuSans-97"/>
     <use x="152.587891" xlink:href="#DejaVuSans-99"/>
     <use x="207.568359" xlink:href="#DejaVuSans-107"/>
     <use x="265.431641" xlink:href="#DejaVuSans-101"/>
     <use x="326.955078" xlink:href="#DejaVuSans-100"/>
     <use x="390.431641" xlink:href="#DejaVuSans-32"/>
     <use x="422.21875" xlink:href="#DejaVuSans-98"/>
     <use x="485.695312" xlink:href="#DejaVuSans-97"/>
     <use x="546.974609" xlink:href="#DejaVuSans-114"/>
    </g>
   </g>
  </g>
  <g id="axes_3">
   <g id="patch_76">
    <path d="M 36.79 317.72 
L 219.33 317.72 
L 219.33 192.84 
L 36.79 192.84 
z
" style="fill:#ffffff;"/>
   </g>
   <g id="patch_77">
    <path clip-path="url(#pc0de37e71d)" d="M 45.087273 315.93275 
L 45.087273 314.632933 
L 61.681818 314.632933 
L 61.681818 308.296321 
L 78.276364 308.296321 
L 78.276364 278.238033 
L 94.870909 278.238033 
L 94.870909 233.394317 
L 111.465455 233.394317 
L 111.465455 198.786667 
L 128.06 198.786667 
L 128.06 202.68612 
L 144.654545 202.68612 
L 144.654545 246.067541 
L 161.249091 246.067541 
L 161.249091 283.924736 
L 177.843636 283.924736 
L 177.843636 307.321457 
L 194.438182 307.321457 
L 194.438182 316.420182 
L 211.032727 316.420182 
L 211.032727 316.745137 
" style="fill:none;stroke:#2ca02c;stroke-linejoin:miter;"/>
   </g>
   <g id="patch_78">
    <path clip-path="url(#pc0de37e71d)" d="M 45.087273 317.395046 
L 45.087273 315.93275 
L 61.681818 315.93275 
L 61.681818 311.058434 
L 78.276364 311.058434 
L 78.276364 291.398689 
L 94.870909 291.398689 
L 94.870909 263.12765 
L 111.465455 263.12765 
L 111.465455 239.243497 
L 128.06 239.243497 
L 128.06 239.243497 
L 144.654545 239.243497 
L 144.654545 269.139308 
L 161.249091 269.139308 
L 161.249091 295.623097 
L 177.843636 295.623097 
L 177.843636 310.733479 
L 194.438182 310.733479 
L 194.438182 316.745137 
L 211.032727 316.745137 
L 211.032727 317.557523 
" style="fill:none;stroke:#ff7f0e;stroke-linejoin:miter;"/>
   </g>
   <g id="patch_79">
    <path clip-path="url(#pc0de37e71d)" d="M 45.087273 317.72 
L 45.087273 317.395046 
L 61.681818 317.395046 
L 61.681818 313.983024 
L 78.276364 313.983024 
L 78.276364 305.534208 
L 94.870909 305.534208 
L 94.870909 290.586302 
L 111.465455 290.586302 
L 111.465455 278.887942 
L 128.06 278.887942 
L 128.06 278.40051 
L 144.654545 278.40051 
L 144.654545 291.561166 
L 161.249091 291.561166 
L 161.249091 306.996503 
L 177.843636 306.996503 
L 177.843636 313.820546 
L 194.438182 313.820546 
L 194.438182 317.557523 
L 211.032727 317.557523 
L 211.032727 317.72 
" style="fill:none;stroke:#1f77b4;stroke-linejoin:miter;"/>
   </g>
   <g id="matplotlib.axis_5">
    <g id="xtick_7">
     <g id="line2d_17">
      <g>
       <use style="stroke:#000000;stroke-width:0.8;" x="74.562821" xlink:href="#m1922f0946a" y="317.72"/>
      </g>
     </g>
     <g id="text_22">
      <!-- −2 -->
      <g transform="translate(67.191727 332.318437)scale(0.1 -0.1)">
       <use xlink:href="#DejaVuSans-8722"/>
       <use x="83.789062" xlink:href="#DejaVuSans-50"/>
      </g>
     </g>
    </g>
    <g id="xtick_8">
     <g id="line2d_18">
      <g>
       <use style="stroke:#000000;stroke-width:0.8;" x="127.345869" xlink:href="#m1922f0946a" y="317.72"/>
      </g>
     </g>
     <g id="text_23">
      <!-- 0 -->
      <g transform="translate(124.164619 332.318437)scale(0.1 -0.1)">
       <use xlink:href="#DejaVuSans-48"/>
      </g>
     </g>
    </g>
    <g id="xtick_9">
     <g id="line2d_19">
      <g>
       <use style="stroke:#000000;stroke-width:0.8;" x="180.128918" xlink:href="#m1922f0946a" y="317.72"/>
      </g>
     </g>
     <g id="text_24">
      <!-- 2 -->
      <g transform="translate(176.947668 332.318437)scale(0.1 -0.1)">
       <use xlink:href="#DejaVuSans-50"/>
      </g>
     </g>
    </g>
   </g>
   <g id="matplotlib.axis_6">
    <g id="ytick_11">
     <g id="line2d_20">
      <g>
       <use style="stroke:#000000;stroke-width:0.8;" x="36.79" xlink:href="#mf7fb2fbcc9" y="317.72"/>
      </g>
     </g>
     <g id="text_25">
      <!-- 0 -->
      <g transform="translate(23.4275 321.519219)scale(0.1 -0.1)">
       <use xlink:href="#DejaVuSans-48"/>
      </g>
     </g>
    </g>
    <g id="ytick_12">
     <g id="line2d_21">
      <g>
       <use style="stroke:#000000;stroke-width:0.8;" x="36.79" xlink:href="#mf7fb2fbcc9" y="285.224554"/>
      </g>
     </g>
     <g id="text_26">
      <!-- 200 -->
      <g transform="translate(10.7025 289.023772)scale(0.1 -0.1)">
       <use xlink:href="#DejaVuSans-50"/>
       <use x="63.623047" xlink:href="#DejaVuSans-48"/>
       <use x="127.246094" xlink:href="#DejaVuSans-48"/>
      </g>
     </g>
    </g>
    <g id="ytick_13">
     <g id="line2d_22">
      <g>
       <use style="stroke:#000000;stroke-width:0.8;" x="36.79" xlink:href="#mf7fb2fbcc9" y="252.729107"/>
      </g>
     </g>
     <g id="text_27">
      <!-- 400 -->
      <g transform="translate(10.7025 256.528326)scale(0.1 -0.1)">
       <use xlink:href="#DejaVuSans-52"/>
       <use x="63.623047" xlink:href="#DejaVuSans-48"/>
       <use x="127.246094" xlink:href="#DejaVuSans-48"/>
      </g>
     </g>
    </g>
    <g id="ytick_14">
     <g id="line2d_23">
      <g>
       <use style="stroke:#000000;stroke-width:0.8;" x="36.79" xlink:href="#mf7fb2fbcc9" y="220.233661"/>
      </g>
     </g>
     <g id="text_28">
      <!-- 600 -->
      <defs>
       <path d="M 33.015625 40.375 
Q 26.375 40.375 22.484375 35.828125 
Q 18.609375 31.296875 18.609375 23.390625 
Q 18.609375 15.53125 22.484375 10.953125 
Q 26.375 6.390625 33.015625 6.390625 
Q 39.65625 6.390625 43.53125 10.953125 
Q 47.40625 15.53125 47.40625 23.390625 
Q 47.40625 31.296875 43.53125 35.828125 
Q 39.65625 40.375 33.015625 40.375 
z
M 52.59375 71.296875 
L 52.59375 62.3125 
Q 48.875 64.0625 45.09375 64.984375 
Q 41.3125 65.921875 37.59375 65.921875 
Q 27.828125 65.921875 22.671875 59.328125 
Q 17.53125 52.734375 16.796875 39.40625 
Q 19.671875 43.65625 24.015625 45.921875 
Q 28.375 48.1875 33.59375 48.1875 
Q 44.578125 48.1875 50.953125 41.515625 
Q 57.328125 34.859375 57.328125 23.390625 
Q 57.328125 12.15625 50.6875 5.359375 
Q 44.046875 -1.421875 33.015625 -1.421875 
Q 20.359375 -1.421875 13.671875 8.265625 
Q 6.984375 17.96875 6.984375 36.375 
Q 6.984375 53.65625 15.1875 63.9375 
Q 23.390625 74.21875 37.203125 74.21875 
Q 40.921875 74.21875 44.703125 73.484375 
Q 48.484375 72.75 52.59375 71.296875 
z
" id="DejaVuSans-54"/>
      </defs>
      <g transform="translate(10.7025 224.03288)scale(0.1 -0.1)">
       <use xlink:href="#DejaVuSans-54"/>
       <use x="63.623047" xlink:href="#DejaVuSans-48"/>
       <use x="127.246094" xlink:href="#DejaVuSans-48"/>
      </g>
     </g>
    </g>
   </g>
   <g id="patch_80">
    <path d="M 36.79 317.72 
L 36.79 192.84 
" style="fill:none;stroke:#000000;stroke-linecap:square;stroke-linejoin:miter;stroke-width:0.8;"/>
   </g>
   <g id="patch_81">
    <path d="M 219.33 317.72 
L 219.33 192.84 
" style="fill:none;stroke:#000000;stroke-linecap:square;stroke-linejoin:miter;stroke-width:0.8;"/>
   </g>
   <g id="patch_82">
    <path d="M 36.79 317.72 
L 219.33 317.72 
" style="fill:none;stroke:#000000;stroke-linecap:square;stroke-linejoin:miter;stroke-width:0.8;"/>
   </g>
   <g id="patch_83">
    <path d="M 36.79 192.84 
L 219.33 192.84 
" style="fill:none;stroke:#000000;stroke-linecap:square;stroke-linejoin:miter;stroke-width:0.8;"/>
   </g>
   <g id="text_29">
    <!-- stack step (unfilled) -->
    <defs>
     <path d="M 18.109375 8.203125 
L 18.109375 -20.796875 
L 9.078125 -20.796875 
L 9.078125 54.6875 
L 18.109375 54.6875 
L 18.109375 46.390625 
Q 20.953125 51.265625 25.265625 53.625 
Q 29.59375 56 35.59375 56 
Q 45.5625 56 51.78125 48.09375 
Q 58.015625 40.1875 58.015625 27.296875 
Q 58.015625 14.40625 51.78125 6.484375 
Q 45.5625 -1.421875 35.59375 -1.421875 
Q 29.59375 -1.421875 25.265625 0.953125 
Q 20.953125 3.328125 18.109375 8.203125 
z
M 48.6875 27.296875 
Q 48.6875 37.203125 44.609375 42.84375 
Q 40.53125 48.484375 33.40625 48.484375 
Q 26.265625 48.484375 22.1875 42.84375 
Q 18.109375 37.203125 18.109375 27.296875 
Q 18.109375 17.390625 22.1875 11.75 
Q 26.265625 6.109375 33.40625 6.109375 
Q 40.53125 6.109375 44.609375 11.75 
Q 48.6875 17.390625 48.6875 27.296875 
z
" id="DejaVuSans-112"/>
     <path d="M 31 75.875 
Q 24.46875 64.65625 21.28125 53.65625 
Q 18.109375 42.671875 18.109375 31.390625 
Q 18.109375 20.125 21.3125 9.0625 
Q 24.515625 -2 31 -13.1875 
L 23.1875 -13.1875 
Q 15.875 -1.703125 12.234375 9.375 
Q 8.59375 20.453125 8.59375 31.390625 
Q 8.59375 42.28125 12.203125 53.3125 
Q 15.828125 64.359375 23.1875 75.875 
z
" id="DejaVuSans-40"/>
     <path d="M 8.5 21.578125 
L 8.5 54.6875 
L 17.484375 54.6875 
L 17.484375 21.921875 
Q 17.484375 14.15625 20.5 10.265625 
Q 23.53125 6.390625 29.59375 6.390625 
Q 36.859375 6.390625 41.078125 11.03125 
Q 45.3125 15.671875 45.3125 23.6875 
L 45.3125 54.6875 
L 54.296875 54.6875 
L 54.296875 0 
L 45.3125 0 
L 45.3125 8.40625 
Q 42.046875 3.421875 37.71875 1 
Q 33.40625 -1.421875 27.6875 -1.421875 
Q 18.265625 -1.421875 13.375 4.4375 
Q 8.5 10.296875 8.5 21.578125 
z
M 31.109375 56 
z
" id="DejaVuSans-117"/>
     <path d="M 37.109375 75.984375 
L 37.109375 68.5 
L 28.515625 68.5 
Q 23.6875 68.5 21.796875 66.546875 
Q 19.921875 64.59375 19.921875 59.515625 
L 19.921875 54.6875 
L 34.71875 54.6875 
L 34.71875 47.703125 
L 19.921875 47.703125 
L 19.921875 0 
L 10.890625 0 
L 10.890625 47.703125 
L 2.296875 47.703125 
L 2.296875 54.6875 
L 10.890625 54.6875 
L 10.890625 58.5 
Q 10.890625 67.625 15.140625 71.796875 
Q 19.390625 75.984375 28.609375 75.984375 
z
" id="DejaVuSans-102"/>
     <path d="M 8.015625 75.875 
L 15.828125 75.875 
Q 23.140625 64.359375 26.78125 53.3125 
Q 30.421875 42.28125 30.421875 31.390625 
Q 30.421875 20.453125 26.78125 9.375 
Q 23.140625 -1.703125 15.828125 -13.1875 
L 8.015625 -13.1875 
Q 14.5 -2 17.703125 9.0625 
Q 20.90625 20.125 20.90625 31.390625 
Q 20.90625 42.671875 17.703125 53.65625 
Q 14.5 64.65625 8.015625 75.875 
z
" id="DejaVuSans-41"/>
    </defs>
    <g transform="translate(68.43875 186.84)scale(0.12 -0.12)">
     <use xlink:href="#DejaVuSans-115"/>
     <use x="52.099609" xlink:href="#DejaVuSans-116"/>
     <use x="91.308594" xlink:href="#DejaVuSans-97"/>
     <use x="152.587891" xlink:href="#DejaVuSans-99"/>
     <use x="207.568359" xlink:href="#DejaVuSans-107"/>
     <use x="265.478516" xlink:href="#DejaVuSans-32"/>
     <use x="297.265625" xlink:href="#DejaVuSans-115"/>
     <use x="349.365234" xlink:href="#DejaVuSans-116"/>
     <use x="388.574219" xlink:href="#DejaVuSans-101"/>
     <use x="450.097656" xlink:href="#DejaVuSans-112"/>
     <use x="513.574219" xlink:href="#DejaVuSans-32"/>
     <use x="545.361328" xlink:href="#DejaVuSans-40"/>
     <use x="584.375" xlink:href="#DejaVuSans-117"/>
     <use x="647.753906" xlink:href="#DejaVuSans-110"/>
     <use x="711.132812" xlink:href="#DejaVuSans-102"/>
     <use x="746.337891" xlink:href="#DejaVuSans-105"/>
     <use x="774.121094" xlink:href="#DejaVuSans-108"/>
     <use x="801.904297" xlink:href="#DejaVuSans-108"/>
     <use x="829.6875" xlink:href="#DejaVuSans-101"/>
     <use x="891.210938" xlink:href="#DejaVuSans-100"/>
     <use x="954.6875" xlink:href="#DejaVuSans-41"/>
    </g>
   </g>
  </g>
  <g id="axes_4">
   <g id="patch_84">
    <path d="M 264.94 317.72 
L 447.48 317.72 
L 447.48 192.84 
L 264.94 192.84 
z
" style="fill:#ffffff;"/>
   </g>
   <g id="patch_85">
    <path clip-path="url(#p97388de653)" d="M 273.237273 317.72 
L 277.752795 317.72 
L 277.752795 317.68336 
L 273.237273 317.68336 
z
" style="fill:#1f77b4;"/>
   </g>
   <g id="patch_86">
    <path clip-path="url(#p97388de653)" d="M 290.170482 317.72 
L 294.686005 317.72 
L 294.686005 317.023841 
L 290.170482 317.023841 
z
" style="fill:#1f77b4;"/>
   </g>
   <g id="patch_87">
    <path clip-path="url(#p97388de653)" d="M 307.103692 317.72 
L 311.619215 317.72 
L 311.619215 309.402727 
L 307.103692 309.402727 
z
" style="fill:#1f77b4;"/>
   </g>
   <g id="patch_88">
    <path clip-path="url(#p97388de653)" d="M 324.036902 317.72 
L 328.552424 317.72 
L 328.552424 279.651074 
L 324.036902 279.651074 
z
" style="fill:#1f77b4;"/>
   </g>
   <g id="patch_89">
    <path clip-path="url(#p97388de653)" d="M 340.970111 317.72 
L 345.485634 317.72 
L 345.485634 226.303282 
L 340.970111 226.303282 
z
" style="fill:#1f77b4;"/>
   </g>
   <g id="patch_90">
    <path clip-path="url(#p97388de653)" d="M 357.903321 317.72 
L 362.418844 317.72 
L 362.418844 198.786667 
L 357.903321 198.786667 
z
" style="fill:#1f77b4;"/>
   </g>
   <g id="patch_91">
    <path clip-path="url(#p97388de653)" d="M 374.836531 317.72 
L 379.352053 317.72 
L 379.352053 241.875268 
L 374.836531 241.875268 
z
" style="fill:#1f77b4;"/>
   </g>
   <g id="patch_92">
    <path clip-path="url(#p97388de653)" d="M 391.76974 317.72 
L 396.285263 317.72 
L 396.285263 290.826264 
L 391.76974 290.826264 
z
" style="fill:#1f77b4;"/>
   </g>
   <g id="patch_93">
    <path clip-path="url(#p97388de653)" d="M 408.70295 317.72 
L 413.218472 317.72 
L 413.218472 312.150725 
L 408.70295 312.150725 
z
" style="fill:#1f77b4;"/>
   </g>
   <g id="patch_94">
    <path clip-path="url(#p97388de653)" d="M 425.63616 317.72 
L 430.151682 317.72 
L 430.151682 317.097121 
L 425.63616 317.097121 
z
" style="fill:#1f77b4;"/>
   </g>
   <g id="patch_95">
    <path clip-path="url(#p97388de653)" d="M 277.752795 317.72 
L 282.268318 317.72 
L 282.268318 317.68336 
L 277.752795 317.68336 
z
" style="fill:#ff7f0e;"/>
   </g>
   <g id="patch_96">
    <path clip-path="url(#p97388de653)" d="M 294.686005 317.72 
L 299.201528 317.72 
L 299.201528 317.46352 
L 294.686005 317.46352 
z
" style="fill:#ff7f0e;"/>
   </g>
   <g id="patch_97">
    <path clip-path="url(#p97388de653)" d="M 311.619215 317.72 
L 316.134737 317.72 
L 316.134737 314.568963 
L 311.619215 314.568963 
z
" style="fill:#ff7f0e;"/>
   </g>
   <g id="patch_98">
    <path clip-path="url(#p97388de653)" d="M 328.552424 317.72 
L 333.067947 317.72 
L 333.067947 299.290097 
L 328.552424 299.290097 
z
" style="fill:#ff7f0e;"/>
   </g>
   <g id="patch_99">
    <path clip-path="url(#p97388de653)" d="M 345.485634 317.72 
L 350.001156 317.72 
L 350.001156 273.42228 
L 345.485634 273.42228 
z
" style="fill:#ff7f0e;"/>
   </g>
   <g id="patch_100">
    <path clip-path="url(#p97388de653)" d="M 362.418844 317.72 
L 366.934366 317.72 
L 366.934366 258.656373 
L 362.418844 258.656373 
z
" style="fill:#ff7f0e;"/>
   </g>
   <g id="patch_101">
    <path clip-path="url(#p97388de653)" d="M 379.352053 317.72 
L 383.867576 317.72 
L 383.867576 276.390117 
L 379.352053 276.390117 
z
" style="fill:#ff7f0e;"/>
   </g>
   <g id="patch_102">
    <path clip-path="url(#p97388de653)" d="M 396.285263 317.72 
L 400.800785 317.72 
L 400.800785 304.016652 
L 396.285263 304.016652 
z
" style="fill:#ff7f0e;"/>
   </g>
   <g id="patch_103">
    <path clip-path="url(#p97388de653)" d="M 413.218472 317.72 
L 417.733995 317.72 
L 417.733995 315.008642 
L 413.218472 315.008642 
z
" style="fill:#ff7f0e;"/>
   </g>
   <g id="patch_104">
    <path clip-path="url(#p97388de653)" d="M 430.151682 317.72 
L 434.667205 317.72 
L 434.667205 317.50016 
L 430.151682 317.50016 
z
" style="fill:#ff7f0e;"/>
   </g>
   <g id="patch_105">
    <path clip-path="url(#p97388de653)" d="M 282.268318 317.72 
L 286.78384 317.72 
L 286.78384 317.68336 
L 282.268318 317.68336 
z
" style="fill:#2ca02c;"/>
   </g>
   <g id="patch_106">
    <path clip-path="url(#p97388de653)" d="M 299.201528 317.72 
L 303.71705 317.72 
L 303.71705 317.64672 
L 299.201528 317.64672 
z
" style="fill:#2ca02c;"/>
   </g>
   <g id="patch_107">
    <path clip-path="url(#p97388de653)" d="M 316.134737 317.72 
L 320.65026 317.72 
L 320.65026 316.034562 
L 316.134737 316.034562 
z
" style="fill:#2ca02c;"/>
   </g>
   <g id="patch_108">
    <path clip-path="url(#p97388de653)" d="M 333.067947 317.72 
L 337.583469 317.72 
L 337.583469 310.392007 
L 333.067947 310.392007 
z
" style="fill:#2ca02c;"/>
   </g>
   <g id="patch_109">
    <path clip-path="url(#p97388de653)" d="M 350.001156 317.72 
L 354.516679 317.72 
L 354.516679 300.389296 
L 350.001156 300.389296 
z
" style="fill:#2ca02c;"/>
   </g>
   <g id="patch_110">
    <path clip-path="url(#p97388de653)" d="M 366.934366 317.72 
L 371.449889 317.72 
L 371.449889 293.024662 
L 366.934366 293.024662 
z
" style="fill:#2ca02c;"/>
   </g>
   <g id="patch_111">
    <path clip-path="url(#p97388de653)" d="M 383.867576 317.72 
L 388.383098 317.72 
L 388.383098 302.624334 
L 383.867576 302.624334 
z
" style="fill:#2ca02c;"/>
   </g>
   <g id="patch_112">
    <path clip-path="url(#p97388de653)" d="M 400.800785 317.72 
L 405.316308 317.72 
L 405.316308 312.004165 
L 400.800785 312.004165 
z
" style="fill:#2ca02c;"/>
   </g>
   <g id="patch_113">
    <path clip-path="url(#p97388de653)" d="M 417.733995 317.72 
L 422.249518 317.72 
L 422.249518 316.620801 
L 417.733995 316.620801 
z
" style="fill:#2ca02c;"/>
   </g>
   <g id="patch_114">
    <path clip-path="url(#p97388de653)" d="M 434.667205 317.72 
L 439.182727 317.72 
L 439.182727 317.50016 
L 434.667205 317.50016 
z
" style="fill:#2ca02c;"/>
   </g>
   <g id="matplotlib.axis_7">
    <g id="xtick_10">
     <g id="line2d_24">
      <g>
       <use style="stroke:#000000;stroke-width:0.8;" x="280.713022" xlink:href="#m1922f0946a" y="317.72"/>
      </g>
     </g>
     <g id="text_30">
      <!-- −4 -->
      <g transform="translate(273.341928 332.318437)scale(0.1 -0.1)">
       <use xlink:href="#DejaVuSans-8722"/>
       <use x="83.789062" xlink:href="#DejaVuSans-52"/>
      </g>
     </g>
    </g>
    <g id="xtick_11">
     <g id="line2d_25">
      <g>
       <use style="stroke:#000000;stroke-width:0.8;" x="321.771725" xlink:href="#m1922f0946a" y="317.72"/>
      </g>
     </g>
     <g id="text_31">
      <!-- −2 -->
      <g transform="translate(314.400632 332.318437)scale(0.1 -0.1)">
       <use xlink:href="#DejaVuSans-8722"/>
       <use x="83.789062" xlink:href="#DejaVuSans-50"/>
      </g>
     </g>
    </g>
    <g id="xtick_12">
     <g id="line2d_26">
      <g>
       <use style="stroke:#000000;stroke-width:0.8;" x="362.830429" xlink:href="#m1922f0946a" y="317.72"/>
      </g>
     </g>
     <g id="text_32">
      <!-- 0 -->
      <g transform="translate(359.649179 332.318437)scale(0.1 -0.1)">
       <use xlink:href="#DejaVuSans-48"/>
      </g>
     </g>
    </g>
    <g id="xtick_13">
     <g id="line2d_27">
      <g>
       <use style="stroke:#000000;stroke-width:0.8;" x="403.889132" xlink:href="#m1922f0946a" y="317.72"/>
      </g>
     </g>
     <g id="text_33">
      <!-- 2 -->
      <g transform="translate(400.707882 332.318437)scale(0.1 -0.1)">
       <use xlink:href="#DejaVuSans-50"/>
      </g>
     </g>
    </g>
    <g id="xtick_14">
     <g id="line2d_28">
      <g>
       <use style="stroke:#000000;stroke-width:0.8;" x="444.947835" xlink:href="#m1922f0946a" y="317.72"/>
      </g>
     </g>
     <g id="text_34">
      <!-- 4 -->
      <g transform="translate(441.766585 332.318437)scale(0.1 -0.1)">
       <use xlink:href="#DejaVuSans-52"/>
      </g>
     </g>
    </g>
   </g>
   <g id="matplotlib.axis_8">
    <g id="ytick_15">
     <g id="line2d_29">
      <g>
       <use style="stroke:#000000;stroke-width:0.8;" x="264.94" xlink:href="#mf7fb2fbcc9" y="317.72"/>
      </g>
     </g>
     <g id="text_35">
      <!-- 0 -->
      <g transform="translate(251.5775 321.519219)scale(0.1 -0.1)">
       <use xlink:href="#DejaVuSans-48"/>
      </g>
     </g>
    </g>
    <g id="ytick_16">
     <g id="line2d_30">
      <g>
       <use style="stroke:#000000;stroke-width:0.8;" x="264.94" xlink:href="#mf7fb2fbcc9" y="281.080033"/>
      </g>
     </g>
     <g id="text_36">
      <!-- 1000 -->
      <g transform="translate(232.49 284.879252)scale(0.1 -0.1)">
       <use xlink:href="#DejaVuSans-49"/>
       <use x="63.623047" xlink:href="#DejaVuSans-48"/>
       <use x="127.246094" xlink:href="#DejaVuSans-48"/>
       <use x="190.869141" xlink:href="#DejaVuSans-48"/>
      </g>
     </g>
    </g>
    <g id="ytick_17">
     <g id="line2d_31">
      <g>
       <use style="stroke:#000000;stroke-width:0.8;" x="264.94" xlink:href="#mf7fb2fbcc9" y="244.440066"/>
      </g>
     </g>
     <g id="text_37">
      <!-- 2000 -->
      <g transform="translate(232.49 248.239284)scale(0.1 -0.1)">
       <use xlink:href="#DejaVuSans-50"/>
       <use x="63.623047" xlink:href="#DejaVuSans-48"/>
       <use x="127.246094" xlink:href="#DejaVuSans-48"/>
       <use x="190.869141" xlink:href="#DejaVuSans-48"/>
      </g>
     </g>
    </g>
    <g id="ytick_18">
     <g id="line2d_32">
      <g>
       <use style="stroke:#000000;stroke-width:0.8;" x="264.94" xlink:href="#mf7fb2fbcc9" y="207.800099"/>
      </g>
     </g>
     <g id="text_38">
      <!-- 3000 -->
      <g transform="translate(232.49 211.599317)scale(0.1 -0.1)">
       <use xlink:href="#DejaVuSans-51"/>
       <use x="63.623047" xlink:href="#DejaVuSans-48"/>
       <use x="127.246094" xlink:href="#DejaVuSans-48"/>
       <use x="190.869141" xlink:href="#DejaVuSans-48"/>
      </g>
     </g>
    </g>
   </g>
   <g id="patch_115">
    <path d="M 264.94 317.72 
L 264.94 192.84 
" style="fill:none;stroke:#000000;stroke-linecap:square;stroke-linejoin:miter;stroke-width:0.8;"/>
   </g>
   <g id="patch_116">
    <path d="M 447.48 317.72 
L 447.48 192.84 
" style="fill:none;stroke:#000000;stroke-linecap:square;stroke-linejoin:miter;stroke-width:0.8;"/>
   </g>
   <g id="patch_117">
    <path d="M 264.94 317.72 
L 447.48 317.72 
" style="fill:none;stroke:#000000;stroke-linecap:square;stroke-linejoin:miter;stroke-width:0.8;"/>
   </g>
   <g id="patch_118">
    <path d="M 264.94 192.84 
L 447.48 192.84 
" style="fill:none;stroke:#000000;stroke-linecap:square;stroke-linejoin:miter;stroke-width:0.8;"/>
   </g>
   <g id="text_39">
    <!-- different sample sizes -->
    <defs>
     <path d="M 5.515625 54.6875 
L 48.1875 54.6875 
L 48.1875 46.484375 
L 14.40625 7.171875 
L 48.1875 7.171875 
L 48.1875 0 
L 4.296875 0 
L 4.296875 8.203125 
L 38.09375 47.515625 
L 5.515625 47.515625 
z
" id="DejaVuSans-122"/>
    </defs>
    <g transform="translate(290.119062 186.84)scale(0.12 -0.12)">
     <use xlink:href="#DejaVuSans-100"/>
     <use x="63.476562" xlink:href="#DejaVuSans-105"/>
     <use x="91.259766" xlink:href="#DejaVuSans-102"/>
     <use x="126.464844" xlink:href="#DejaVuSans-102"/>
     <use x="161.669922" xlink:href="#DejaVuSans-101"/>
     <use x="223.193359" xlink:href="#DejaVuSans-114"/>
     <use x="264.275391" xlink:href="#DejaVuSans-101"/>
     <use x="325.798828" xlink:href="#DejaVuSans-110"/>
     <use x="389.177734" xlink:href="#DejaVuSans-116"/>
     <use x="428.386719" xlink:href="#DejaVuSans-32"/>
     <use x="460.173828" xlink:href="#DejaVuSans-115"/>
     <use x="512.273438" xlink:href="#DejaVuSans-97"/>
     <use x="573.552734" xlink:href="#DejaVuSans-109"/>
     <use x="670.964844" xlink:href="#DejaVuSans-112"/>
     <use x="734.441406" xlink:href="#DejaVuSans-108"/>
     <use x="762.224609" xlink:href="#DejaVuSans-101"/>
     <use x="823.748047" xlink:href="#DejaVuSans-32"/>
     <use x="855.535156" xlink:href="#DejaVuSans-115"/>
     <use x="907.634766" xlink:href="#DejaVuSans-105"/>
     <use x="935.417969" xlink:href="#DejaVuSans-122"/>
     <use x="987.908203" xlink:href="#DejaVuSans-101"/>
     <use x="1049.431641" xlink:href="#DejaVuSans-115"/>
    </g>
   </g>
  </g>
 </g>
 <defs>
  <clipPath id="pd5fa31cc61">
   <rect height="124.88" width="182.54" x="36.79" y="25.44"/>
  </clipPath>
  <clipPath id="pd28e9b401a">
   <rect height="124.88" width="182.54" x="264.94" y="25.44"/>
  </clipPath>
  <clipPath id="pc0de37e71d">
   <rect height="124.88" width="182.54" x="36.79" y="192.84"/>
  </clipPath>
  <clipPath id="p97388de653">
   <rect height="124.88" width="182.54" x="264.94" y="192.84"/>
  </clipPath>
 </defs>
</svg>
